<svg xmlns:xlink="http://www.w3.org/1999/xlink" version="1.1" style="font-family:'lucida grande', 'lucida sans unicode', arial, helvetica, sans-serif;font-size:12px;" xmlns="http://www.w3.org/2000/svg" width="600" height="400"><desc>Created with Highstock 4.2.1</desc><defs><clipPath id="highcharts-11"><rect x="0" y="0" width="517" height="243"></rect></clipPath></defs><rect x="0" y="0" width="600" height="400" strokeWidth="0" fill="#FFFFFF" class=" highcharts-background"></rect><path fill="none" d="M 73 296.5 L 590 296.5" stroke="#808050" stroke-width="1"></path><g class="highcharts-grid" ></g><g class="highcharts-grid" ><path fill="none" d="M 73 296.5 L 590 296.5" stroke="#D8D8D8" stroke-width="1"  opacity="1"></path><path fill="none" d="M 73 247.5 L 590 247.5" stroke="#D8D8D8" stroke-width="1"  opacity="1"></path><path fill="none" d="M 73 199.5 L 590 199.5" stroke="#D8D8D8" stroke-width="1"  opacity="1"></path><path fill="none" d="M 73 150.5 L 590 150.5" stroke="#D8D8D8" stroke-width="1"  opacity="1"></path><path fill="none" d="M 73 102.5 L 590 102.5" stroke="#D8D8D8" stroke-width="1"  opacity="1"></path><path fill="none" d="M 73 52.5 L 590 52.5" stroke="#D8D8D8" stroke-width="1"  opacity="1"></path></g><g class="highcharts-axis" ><path fill="none" d="M 97.5 296 L 97.5 306" stroke="#C0D0E0" stroke-width="1" opacity="1"></path><path fill="none" d="M 130.5 296 L 130.5 306" stroke="#C0D0E0" stroke-width="1" opacity="1"></path><path fill="none" d="M 164.5 296 L 164.5 306" stroke="#C0D0E0" stroke-width="1" opacity="1"></path><path fill="none" d="M 197.5 296 L 197.5 306" stroke="#C0D0E0" stroke-width="1" opacity="1"></path><path fill="none" d="M 230.5 296 L 230.5 306" stroke="#C0D0E0" stroke-width="1" opacity="1"></path><path fill="none" d="M 264.5 296 L 264.5 306" stroke="#C0D0E0" stroke-width="1" opacity="1"></path><path fill="none" d="M 297.5 296 L 297.5 306" stroke="#C0D0E0" stroke-width="1" opacity="1"></path><path fill="none" d="M 330.5 296 L 330.5 306" stroke="#C0D0E0" stroke-width="1" opacity="1"></path><path fill="none" d="M 364.5 296 L 364.5 306" stroke="#C0D0E0" stroke-width="1" opacity="1"></path><path fill="none" d="M 397.5 296 L 397.5 306" stroke="#C0D0E0" stroke-width="1" opacity="1"></path><path fill="none" d="M 431.5 296 L 431.5 306" stroke="#C0D0E0" stroke-width="1" opacity="1"></path><path fill="none" d="M 464.5 296 L 464.5 306" stroke="#C0D0E0" stroke-width="1" opacity="1"></path><path fill="none" d="M 497.5 296 L 497.5 306" stroke="#C0D0E0" stroke-width="1" opacity="1"></path><path fill="none" d="M 531.5 296 L 531.5 306" stroke="#C0D0E0" stroke-width="1" opacity="1"></path><path fill="none" d="M 564.5 296 L 564.5 306" stroke="#C0D0E0" stroke-width="1" opacity="1"></path><text x="331.5"  text-anchor="middle" transform="translate(0,0)" class=" highcharts-xaxis-title" style="color:#707070;fill:#707070;" y="338">Jours</text><path fill="none" d="M 73 296.5 L 590 296.5" stroke="#C0D0E0" stroke-width="1" ></path></g><g class="highcharts-axis" ><text x="27.671875"  text-anchor="middle" transform="translate(0,0) rotate(270 27.671875 174.5)" class=" highcharts-yaxis-title" style="color:#707070;fill:#707070;" y="174.5">KWH</text></g><g class="highcharts-series-group" ><g class="highcharts-series highcharts-series-0"  transform="translate(73,53) scale(1 1)" clip-path="url(#highcharts-11)"><rect x="3.5" y="243.5" width="5" height="0" stroke="#FFFFFF" stroke-width="1" fill="#7cb5ec" rx="0" ry="0"></rect><rect x="20.5" y="243.5" width="5" height="0" stroke="#FFFFFF" stroke-width="1" fill="#7cb5ec" rx="0" ry="0"></rect><rect x="36.5" y="243.5" width="5" height="0" stroke="#FFFFFF" stroke-width="1" fill="#7cb5ec" rx="0" ry="0"></rect><rect x="53.5" y="243.5" width="5" height="0" stroke="#FFFFFF" stroke-width="1" fill="#7cb5ec" rx="0" ry="0"></rect><rect x="70.5" y="243.5" width="5" height="0" stroke="#FFFFFF" stroke-width="1" fill="#7cb5ec" rx="0" ry="0"></rect><rect x="86.5" y="243.5" width="5" height="0" stroke="#FFFFFF" stroke-width="1" fill="#7cb5ec" rx="0" ry="0"></rect><rect x="103.5" y="49.5" width="5" height="194" stroke="#FFFFFF" stroke-width="1" fill="#7cb5ec" rx="0" ry="0"></rect><rect x="120.5" y="243.5" width="5" height="0" stroke="#FFFFFF" stroke-width="1" fill="#7cb5ec" rx="0" ry="0"></rect><rect x="136.5" y="243.5" width="5" height="0" stroke="#FFFFFF" stroke-width="1" fill="#7cb5ec" rx="0" ry="0"></rect><rect x="153.5" y="243.5" width="5" height="0" stroke="#FFFFFF" stroke-width="1" fill="#7cb5ec" rx="0" ry="0"></rect><rect x="170.5" y="243.5" width="5" height="0" stroke="#FFFFFF" stroke-width="1" fill="#7cb5ec" rx="0" ry="0"></rect><rect x="186.5" y="243.5" width="5" height="0" stroke="#FFFFFF" stroke-width="1" fill="#7cb5ec" rx="0" ry="0"></rect><rect x="203.5" y="243.5" width="5" height="0" stroke="#FFFFFF" stroke-width="1" fill="#7cb5ec" rx="0" ry="0"></rect><rect x="220.5" y="243.5" width="5" height="0" stroke="#FFFFFF" stroke-width="1" fill="#7cb5ec" rx="0" ry="0"></rect><rect x="236.5" y="243.5" width="5" height="0" stroke="#FFFFFF" stroke-width="1" fill="#7cb5ec" rx="0" ry="0"></rect><rect x="253.5" y="243.5" width="5" height="0" stroke="#FFFFFF" stroke-width="1" fill="#7cb5ec" rx="0" ry="0"></rect><rect x="270.5" y="243.5" width="5" height="0" stroke="#FFFFFF" stroke-width="1" fill="#7cb5ec" rx="0" ry="0"></rect><rect x="286.5" y="243.5" width="5" height="0" stroke="#FFFFFF" stroke-width="1" fill="#7cb5ec" rx="0" ry="0"></rect><rect x="303.5" y="243.5" width="5" height="0" stroke="#FFFFFF" stroke-width="1" fill="#7cb5ec" rx="0" ry="0"></rect><rect x="320.5" y="243.5" width="5" height="0" stroke="#FFFFFF" stroke-width="1" fill="#7cb5ec" rx="0" ry="0"></rect><rect x="336.5" y="243.5" width="5" height="0" stroke="#FFFFFF" stroke-width="1" fill="#7cb5ec" rx="0" ry="0"></rect><rect x="353.5" y="243.5" width="5" height="0" stroke="#FFFFFF" stroke-width="1" fill="#7cb5ec" rx="0" ry="0"></rect><rect x="370.5" y="243.5" width="5" height="0" stroke="#FFFFFF" stroke-width="1" fill="#7cb5ec" rx="0" ry="0"></rect><rect x="386.5" y="243.5" width="5" height="0" stroke="#FFFFFF" stroke-width="1" fill="#7cb5ec" rx="0" ry="0"></rect><rect x="403.5" y="243.5" width="5" height="0" stroke="#FFFFFF" stroke-width="1" fill="#7cb5ec" rx="0" ry="0"></rect><rect x="420.5" y="243.5" width="5" height="0" stroke="#FFFFFF" stroke-width="1" fill="#7cb5ec" rx="0" ry="0"></rect><rect x="436.5" y="243.5" width="5" height="0" stroke="#FFFFFF" stroke-width="1" fill="#7cb5ec" rx="0" ry="0"></rect><rect x="453.5" y="243.5" width="5" height="0" stroke="#FFFFFF" stroke-width="1" fill="#7cb5ec" rx="0" ry="0"></rect><rect x="470.5" y="243.5" width="5" height="0" stroke="#FFFFFF" stroke-width="1" fill="#7cb5ec" rx="0" ry="0"></rect><rect x="486.5" y="243.5" width="5" height="0" stroke="#FFFFFF" stroke-width="1" fill="#7cb5ec" rx="0" ry="0"></rect><rect x="503.5" y="243.5" width="5" height="0" stroke="#FFFFFF" stroke-width="1" fill="#7cb5ec" rx="0" ry="0"></rect></g><g class="highcharts-markers highcharts-series-0"  transform="translate(73,53) scale(1 1)" clip-path="none"></g><g class="highcharts-series highcharts-series-1"  transform="translate(73,53) scale(1 1)" clip-path="url(#highcharts-11)"><rect x="8.5" y="243.5" width="5" height="0" stroke="#FFFFFF" stroke-width="1" fill="#434348" rx="0" ry="0"></rect><rect x="25.5" y="243.5" width="5" height="0" stroke="#FFFFFF" stroke-width="1" fill="#434348" rx="0" ry="0"></rect><rect x="41.5" y="243.5" width="5" height="0" stroke="#FFFFFF" stroke-width="1" fill="#434348" rx="0" ry="0"></rect><rect x="58.5" y="243.5" width="5" height="0" stroke="#FFFFFF" stroke-width="1" fill="#434348" rx="0" ry="0"></rect><rect x="75.5" y="243.5" width="5" height="0" stroke="#FFFFFF" stroke-width="1" fill="#434348" rx="0" ry="0"></rect><rect x="91.5" y="243.5" width="5" height="0" stroke="#FFFFFF" stroke-width="1" fill="#434348" rx="0" ry="0"></rect><rect x="108.5" y="49.5" width="5" height="194" stroke="#FFFFFF" stroke-width="1" fill="#434348" rx="0" ry="0"></rect><rect x="125.5" y="243.5" width="5" height="0" stroke="#FFFFFF" stroke-width="1" fill="#434348" rx="0" ry="0"></rect><rect x="141.5" y="243.5" width="5" height="0" stroke="#FFFFFF" stroke-width="1" fill="#434348" rx="0" ry="0"></rect><rect x="158.5" y="243.5" width="5" height="0" stroke="#FFFFFF" stroke-width="1" fill="#434348" rx="0" ry="0"></rect></g><g class="highcharts-markers highcharts-series-1"  transform="translate(73,53) scale(1 1)" clip-path="none"></g></g><text x="280" text-anchor="middle" class="highcharts-title"  style="color:#333333;font-size:18px;fill:#333333;width:536px;" y="24"><tspan>Comparaison énergie consommée au mois Mars 2016</tspan></text><g class="highcharts-legend"  transform="translate(77,356)"><g ><g><g class="highcharts-legend-item"  transform="translate(8,3)"><text x="21" style="color:#333333;font-size:12px;font-weight:bold;cursor:pointer;fill:#333333;" text-anchor="start"  y="15"><tspan>Energie consommée Mars</tspan></text><rect x="0" y="4" width="16" height="12"  fill="#7cb5ec"></rect></g><g class="highcharts-legend-item"  transform="translate(202.796875,3)"><text x="21" y="15" style="color:#333333;font-size:12px;font-weight:bold;cursor:pointer;fill:#333333;" text-anchor="start" ><tspan>Energie consommée du mois actuel</tspan></text><rect x="0" y="4" width="16" height="12"  fill="#434348"></rect></g></g></g></g><g class="highcharts-axis-labels highcharts-xaxis-labels" ><text x="98.01612903225806" style="color:#606060;cursor:default;font-size:11px;fill:#606060;" text-anchor="middle" transform="translate(0,0)" y="315" opacity="1">2</text><text x="131.3709677419355" style="color:#606060;cursor:default;font-size:11px;fill:#606060;" text-anchor="middle" transform="translate(0,0)" y="315" opacity="1">4</text><text x="164.7258064516129" style="color:#606060;cursor:default;font-size:11px;fill:#606060;" text-anchor="middle" transform="translate(0,0)" y="315" opacity="1">6</text><text x="198.0806451612903" style="color:#606060;cursor:default;font-size:11px;fill:#606060;" text-anchor="middle" transform="translate(0,0)" y="315" opacity="1">8</text><text x="231.43548387096774" style="color:#606060;cursor:default;font-size:11px;fill:#606060;" text-anchor="middle" transform="translate(0,0)" y="315" opacity="1">10</text><text x="264.7903225806451" style="color:#606060;cursor:default;font-size:11px;fill:#606060;" text-anchor="middle" transform="translate(0,0)" y="315" opacity="1">12</text><text x="298.14516129032256" style="color:#606060;cursor:default;font-size:11px;fill:#606060;" text-anchor="middle" transform="translate(0,0)" y="315" opacity="1">14</text><text x="331.49999999999994" style="color:#606060;cursor:default;font-size:11px;fill:#606060;" text-anchor="middle" transform="translate(0,0)" y="315" opacity="1">16</text><text x="364.8548387096774" style="color:#606060;cursor:default;font-size:11px;fill:#606060;" text-anchor="middle" transform="translate(0,0)" y="315" opacity="1">18</text><text x="398.20967741935476" style="color:#606060;cursor:default;font-size:11px;fill:#606060;" text-anchor="middle" transform="translate(0,0)" y="315" opacity="1">20</text><text x="431.5645161290322" style="color:#606060;cursor:default;font-size:11px;fill:#606060;" text-anchor="middle" transform="translate(0,0)" y="315" opacity="1">22</text><text x="464.91935483870964" style="color:#606060;cursor:default;font-size:11px;fill:#606060;" text-anchor="middle" transform="translate(0,0)" y="315" opacity="1">24</text><text x="498.274193548387" style="color:#606060;cursor:default;font-size:11px;fill:#606060;" text-anchor="middle" transform="translate(0,0)" y="315" opacity="1">26</text><text x="531.6290322580644" style="color:#606060;cursor:default;font-size:11px;fill:#606060;" text-anchor="middle" transform="translate(0,0)" y="315" opacity="1">28</text><text x="564.983870967742" style="color:#606060;cursor:default;font-size:11px;fill:#606060;" text-anchor="middle" transform="translate(0,0)" y="315" opacity="1">30</text></g><g class="highcharts-axis-labels highcharts-yaxis-labels" ><text x="58" style="color:#606060;cursor:default;font-size:11px;fill:#606060;width:188px;text-overflow:clip;" text-anchor="end" transform="translate(0,0)" y="299" opacity="1">0k</text><text x="58" style="color:#606060;cursor:default;font-size:11px;fill:#606060;width:188px;text-overflow:clip;" text-anchor="end" transform="translate(0,0)" y="250" opacity="1">5k</text><text x="58" style="color:#606060;cursor:default;font-size:11px;fill:#606060;width:188px;text-overflow:clip;" text-anchor="end" transform="translate(0,0)" y="201" opacity="1">10k</text><text x="58" style="color:#606060;cursor:default;font-size:11px;fill:#606060;width:188px;text-overflow:clip;" text-anchor="end" transform="translate(0,0)" y="153" opacity="1">15k</text><text x="58" style="color:#606060;cursor:default;font-size:11px;fill:#606060;width:188px;text-overflow:clip;" text-anchor="end" transform="translate(0,0)" y="104" opacity="1">20k</text><text x="58" style="color:#606060;cursor:default;font-size:11px;fill:#606060;width:188px;text-overflow:clip;" text-anchor="end" transform="translate(0,0)" y="56" opacity="1">25k</text></g><g class="highcharts-tooltip"  style="cursor:default;padding:0;pointer-events:none;white-space:nowrap;" transform="translate(0,-9999)"><path fill="none" d="M 3.5 0.5 L 13.5 0.5 C 16.5 0.5 16.5 0.5 16.5 3.5 L 16.5 13.5 C 16.5 16.5 16.5 16.5 13.5 16.5 L 3.5 16.5 C 0.5 16.5 0.5 16.5 0.5 13.5 L 0.5 3.5 C 0.5 0.5 0.5 0.5 3.5 0.5"  stroke="black" stroke-opacity="0.049999999999999996" stroke-width="5" transform="translate(1, 1)"></path><path fill="none" d="M 3.5 0.5 L 13.5 0.5 C 16.5 0.5 16.5 0.5 16.5 3.5 L 16.5 13.5 C 16.5 16.5 16.5 16.5 13.5 16.5 L 3.5 16.5 C 0.5 16.5 0.5 16.5 0.5 13.5 L 0.5 3.5 C 0.5 0.5 0.5 0.5 3.5 0.5"  stroke="black" stroke-opacity="0.09999999999999999" stroke-width="3" transform="translate(1, 1)"></path><path fill="none" d="M 3.5 0.5 L 13.5 0.5 C 16.5 0.5 16.5 0.5 16.5 3.5 L 16.5 13.5 C 16.5 16.5 16.5 16.5 13.5 16.5 L 3.5 16.5 C 0.5 16.5 0.5 16.5 0.5 13.5 L 0.5 3.5 C 0.5 0.5 0.5 0.5 3.5 0.5"  stroke="black" stroke-opacity="0.15" stroke-width="1" transform="translate(1, 1)"></path><path fill="rgb(249, 249, 249)" fill-opacity=" .85" d="M 3.5 0.5 L 13.5 0.5 C 16.5 0.5 16.5 0.5 16.5 3.5 L 16.5 13.5 C 16.5 16.5 16.5 16.5 13.5 16.5 L 3.5 16.5 C 0.5 16.5 0.5 16.5 0.5 13.5 L 0.5 3.5 C 0.5 0.5 0.5 0.5 3.5 0.5"></path><text x="8"  style="font-size:12px;color:#333333;fill:#333333;" y="20"></text></g></svg>