<svg xmlns:xlink="http://www.w3.org/1999/xlink" version="1.1" style="font-family:'lucida grande', 'lucida sans unicode', arial, helvetica, sans-serif;font-size:12px;" xmlns="http://www.w3.org/2000/svg" width="600" height="400"><desc>Created with Highstock 4.2.1</desc><defs><clipPath id="highcharts-5"><rect x="0" y="0" width="437" height="289"></rect></clipPath></defs><rect x="0" y="0" width="600" height="400" strokeWidth="0" fill="#FFFFFF" class=" highcharts-background"></rect><g class="highcharts-grid" ></g><g class="highcharts-grid" ><path fill="none" d="M 67 360.5 L 504 360.5" stroke="#D8D8D8" stroke-width="1"  opacity="1"></path><path fill="none" d="M 67 302.5 L 504 302.5" stroke="#D8D8D8" stroke-width="1"  opacity="1"></path><path fill="none" d="M 67 244.5 L 504 244.5" stroke="#D8D8D8" stroke-width="1"  opacity="1"></path><path fill="none" d="M 67 187.5 L 504 187.5" stroke="#D8D8D8" stroke-width="1"  opacity="1"></path><path fill="none" d="M 67 129.5 L 504 129.5" stroke="#D8D8D8" stroke-width="1"  opacity="1"></path><path fill="none" d="M 67 70.5 L 504 70.5" stroke="#D8D8D8" stroke-width="1"  opacity="1"></path></g><g class="highcharts-axis" ><path fill="none" d="M 102.5 360 L 102.5 370" stroke="#C0D0E0" stroke-width="1" opacity="1"></path><path fill="none" d="M 139.5 360 L 139.5 370" stroke="#C0D0E0" stroke-width="1" opacity="1"></path><path fill="none" d="M 175.5 360 L 175.5 370" stroke="#C0D0E0" stroke-width="1" opacity="1"></path><path fill="none" d="M 212.5 360 L 212.5 370" stroke="#C0D0E0" stroke-width="1" opacity="1"></path><path fill="none" d="M 248.5 360 L 248.5 370" stroke="#C0D0E0" stroke-width="1" opacity="1"></path><path fill="none" d="M 285.5 360 L 285.5 370" stroke="#C0D0E0" stroke-width="1" opacity="1"></path><path fill="none" d="M 321.5 360 L 321.5 370" stroke="#C0D0E0" stroke-width="1" opacity="1"></path><path fill="none" d="M 357.5 360 L 357.5 370" stroke="#C0D0E0" stroke-width="1" opacity="1"></path><path fill="none" d="M 394.5 360 L 394.5 370" stroke="#C0D0E0" stroke-width="1" opacity="1"></path><path fill="none" d="M 430.5 360 L 430.5 370" stroke="#C0D0E0" stroke-width="1" opacity="1"></path><path fill="none" d="M 467.5 360 L 467.5 370" stroke="#C0D0E0" stroke-width="1" opacity="1"></path><path fill="none" d="M 503.5 360 L 503.5 370" stroke="#C0D0E0" stroke-width="1" opacity="1"></path><path fill="none" d="M 66.5 360 L 66.5 370" stroke="#C0D0E0" stroke-width="1" opacity="1"></path><path fill="none" d="M 67 360.5 L 504 360.5" stroke="#C0D0E0" stroke-width="1" ></path></g><g class="highcharts-axis" ><text x="28.09375"  text-anchor="middle" transform="translate(0,0) rotate(270 28.09375 215.5)" class=" highcharts-yaxis-title" style="color:#707070;fill:#707070;" y="215.5">Values</text></g><g class="highcharts-series-group" ><g class="highcharts-series highcharts-series-0"  transform="translate(67,71) scale(1 1)" clip-path="url(#highcharts-5)"><path fill="none" d="M 18.208333333333332 265.88 L 54.625 267.036 L 91.04166666666666 236.98 L 127.45833333333333 179.18 L 163.875 136.40800000000002 L 200.29166666666666 98.25999999999999 L 236.70833333333334 55.488 L 273.125 40.45999999999998 L 309.54166666666663 77.45199999999997 L 345.9583333333333 135.25199999999998 L 382.37499999999994 186.11599999999999 L 418.79166666666663 235.824" stroke="#7cb5ec" stroke-width="2"  stroke-linejoin="round" stroke-linecap="round"></path></g><g class="highcharts-markers highcharts-series-0"  transform="translate(67,71) scale(1 1)" clip-path="none"><path fill="#7cb5ec" d="M 418 231.824 C 423.328 231.824 423.328 239.824 418 239.824 C 412.672 239.824 412.672 231.824 418 231.824 Z"></path><path fill="#7cb5ec" d="M 382 182.11599999999999 C 387.328 182.11599999999999 387.328 190.11599999999999 382 190.11599999999999 C 376.672 190.11599999999999 376.672 182.11599999999999 382 182.11599999999999 Z"></path><path fill="#7cb5ec" d="M 345 131.25199999999998 C 350.328 131.25199999999998 350.328 139.25199999999998 345 139.25199999999998 C 339.672 139.25199999999998 339.672 131.25199999999998 345 131.25199999999998 Z"></path><path fill="#7cb5ec" d="M 309 73.45199999999997 C 314.328 73.45199999999997 314.328 81.45199999999997 309 81.45199999999997 C 303.672 81.45199999999997 303.672 73.45199999999997 309 73.45199999999997 Z"></path><path fill="#7cb5ec" d="M 273 36.45999999999998 C 278.328 36.45999999999998 278.328 44.45999999999998 273 44.45999999999998 C 267.672 44.45999999999998 267.672 36.45999999999998 273 36.45999999999998 Z"></path><path fill="#7cb5ec" d="M 236 51.488 C 241.328 51.488 241.328 59.488 236 59.488 C 230.672 59.488 230.672 51.488 236 51.488 Z"></path><path fill="#7cb5ec" d="M 200 94.25999999999999 C 205.328 94.25999999999999 205.328 102.25999999999999 200 102.25999999999999 C 194.672 102.25999999999999 194.672 94.25999999999999 200 94.25999999999999 Z"></path><path fill="#7cb5ec" d="M 163 132.40800000000002 C 168.328 132.40800000000002 168.328 140.40800000000002 163 140.40800000000002 C 157.672 140.40800000000002 157.672 132.40800000000002 163 132.40800000000002 Z"></path><path fill="#7cb5ec" d="M 127 175.18 C 132.328 175.18 132.328 183.18 127 183.18 C 121.672 183.18 121.672 175.18 127 175.18 Z"></path><path fill="#7cb5ec" d="M 91 232.98 C 96.328 232.98 96.328 240.98 91 240.98 C 85.672 240.98 85.672 232.98 91 232.98 Z"></path><path fill="#7cb5ec" d="M 54 263.036 C 59.328 263.036 59.328 271.036 54 271.036 C 48.672 271.036 48.672 263.036 54 263.036 Z"></path><path fill="#7cb5ec" d="M 18 261.88 C 23.328 261.88 23.328 269.88 18 269.88 C 12.672 269.88 12.672 261.88 18 261.88 Z"></path></g></g><text x="300" text-anchor="middle" class="highcharts-title"  style="color:#333333;font-size:18px;fill:#333333;width:536px;" y="24"><tspan>Monthly Average Temperature</tspan></text><text x="300" text-anchor="middle" class="highcharts-subtitle"  style="color:#555555;fill:#555555;width:536px;" y="52"><tspan>Source: WorldClimate.com</tspan></text><g class="highcharts-legend"  transform="translate(516,183)"><g ><g><g class="highcharts-legend-item"  transform="translate(8,3)"><path fill="none" d="M 0 11 L 16 11" stroke="#7cb5ec" stroke-width="2"></path><path fill="#7cb5ec" d="M 8 7 C 13.328 7 13.328 15 8 15 C 2.6719999999999997 15 2.6719999999999997 7 8 7 Z"></path><text x="21" style="color:#333333;font-size:12px;font-weight:bold;cursor:pointer;fill:#333333;" text-anchor="start"  y="15">Tokyo</text></g></g></g></g><g class="highcharts-axis-labels highcharts-xaxis-labels" ><text x="85.20833333333333" style="color:#606060;cursor:default;font-size:11px;fill:#606060;" text-anchor="middle" transform="translate(0,0)" y="379" opacity="1">Jan</text><text x="121.62499999999999" style="color:#606060;cursor:default;font-size:11px;fill:#606060;" text-anchor="middle" transform="translate(0,0)" y="379" opacity="1">Feb</text><text x="158.04166666666666" style="color:#606060;cursor:default;font-size:11px;fill:#606060;" text-anchor="middle" transform="translate(0,0)" y="379" opacity="1">Mar</text><text x="194.45833333333331" style="color:#606060;cursor:default;font-size:11px;fill:#606060;" text-anchor="middle" transform="translate(0,0)" y="379" opacity="1">Apr</text><text x="230.875" style="color:#606060;cursor:default;font-size:11px;fill:#606060;" text-anchor="middle" transform="translate(0,0)" y="379" opacity="1">May</text><text x="267.2916666666667" style="color:#606060;cursor:default;font-size:11px;fill:#606060;" text-anchor="middle" transform="translate(0,0)" y="379" opacity="1">Jun</text><text x="303.7083333333333" style="color:#606060;cursor:default;font-size:11px;fill:#606060;" text-anchor="middle" transform="translate(0,0)" y="379" opacity="1">Jul</text><text x="340.125" style="color:#606060;cursor:default;font-size:11px;fill:#606060;" text-anchor="middle" transform="translate(0,0)" y="379" opacity="1">Aug</text><text x="376.54166666666663" style="color:#606060;cursor:default;font-size:11px;fill:#606060;" text-anchor="middle" transform="translate(0,0)" y="379" opacity="1">Sep</text><text x="412.9583333333333" style="color:#606060;cursor:default;font-size:11px;fill:#606060;" text-anchor="middle" transform="translate(0,0)" y="379" opacity="1">Oct</text><text x="449.375" style="color:#606060;cursor:default;font-size:11px;fill:#606060;" text-anchor="middle" transform="translate(0,0)" y="379" opacity="1">Nov</text><text x="485.79166666666663" style="color:#606060;cursor:default;font-size:11px;fill:#606060;" text-anchor="middle" transform="translate(0,0)" y="379" opacity="1">Dec</text></g><g class="highcharts-axis-labels highcharts-yaxis-labels" ><text x="52" style="color:#606060;cursor:default;font-size:11px;fill:#606060;width:188px;text-overflow:clip;" text-anchor="end" transform="translate(0,0)" y="363" opacity="1">5</text><text x="52" style="color:#606060;cursor:default;font-size:11px;fill:#606060;width:188px;text-overflow:clip;" text-anchor="end" transform="translate(0,0)" y="305" opacity="1">10</text><text x="52" style="color:#606060;cursor:default;font-size:11px;fill:#606060;width:188px;text-overflow:clip;" text-anchor="end" transform="translate(0,0)" y="247" opacity="1">15</text><text x="52" style="color:#606060;cursor:default;font-size:11px;fill:#606060;width:188px;text-overflow:clip;" text-anchor="end" transform="translate(0,0)" y="189" opacity="1">20</text><text x="52" style="color:#606060;cursor:default;font-size:11px;fill:#606060;width:188px;text-overflow:clip;" text-anchor="end" transform="translate(0,0)" y="131" opacity="1">25</text><text x="52" style="color:#606060;cursor:default;font-size:11px;fill:#606060;width:188px;text-overflow:clip;" text-anchor="end" transform="translate(0,0)" y="74" opacity="1">30</text></g><g class="highcharts-tooltip"  style="cursor:default;padding:0;pointer-events:none;white-space:nowrap;" transform="translate(0,-9999)"><path fill="none" d="M 3.5 0.5 L 13.5 0.5 C 16.5 0.5 16.5 0.5 16.5 3.5 L 16.5 13.5 C 16.5 16.5 16.5 16.5 13.5 16.5 L 3.5 16.5 C 0.5 16.5 0.5 16.5 0.5 13.5 L 0.5 3.5 C 0.5 0.5 0.5 0.5 3.5 0.5"  stroke="black" stroke-opacity="0.049999999999999996" stroke-width="5" transform="translate(1, 1)"></path><path fill="none" d="M 3.5 0.5 L 13.5 0.5 C 16.5 0.5 16.5 0.5 16.5 3.5 L 16.5 13.5 C 16.5 16.5 16.5 16.5 13.5 16.5 L 3.5 16.5 C 0.5 16.5 0.5 16.5 0.5 13.5 L 0.5 3.5 C 0.5 0.5 0.5 0.5 3.5 0.5"  stroke="black" stroke-opacity="0.09999999999999999" stroke-width="3" transform="translate(1, 1)"></path><path fill="none" d="M 3.5 0.5 L 13.5 0.5 C 16.5 0.5 16.5 0.5 16.5 3.5 L 16.5 13.5 C 16.5 16.5 16.5 16.5 13.5 16.5 L 3.5 16.5 C 0.5 16.5 0.5 16.5 0.5 13.5 L 0.5 3.5 C 0.5 0.5 0.5 0.5 3.5 0.5"  stroke="black" stroke-opacity="0.15" stroke-width="1" transform="translate(1, 1)"></path><path fill="rgb(249, 249, 249)" fill-opacity=" .85" d="M 3.5 0.5 L 13.5 0.5 C 16.5 0.5 16.5 0.5 16.5 3.5 L 16.5 13.5 C 16.5 16.5 16.5 16.5 13.5 16.5 L 3.5 16.5 C 0.5 16.5 0.5 16.5 0.5 13.5 L 0.5 3.5 C 0.5 0.5 0.5 0.5 3.5 0.5"></path><text x="8"  style="font-size:12px;color:#333333;fill:#333333;" y="20"></text></g></svg>