<svg xmlns:xlink="http://www.w3.org/1999/xlink" version="1.1" style="font-family:'lucida grande', 'lucida sans unicode', arial, helvetica, sans-serif;font-size:12px;" xmlns="http://www.w3.org/2000/svg" width="600" height="400"><desc>Created with Highstock 4.2.1</desc><defs><clipPath id="highcharts-65"><rect x="0" y="0" width="523" height="205"></rect></clipPath></defs><rect x="0" y="0" width="600" height="400" strokeWidth="0" fill="#FFFFFF" class=" highcharts-background"></rect><path fill="none" d="M 67 258.5 L 590 258.5" stroke="#808050" stroke-width="1"></path><g class="highcharts-grid" ></g><g class="highcharts-grid" ><path fill="none" d="M 67 258.5 L 590 258.5" stroke="#D8D8D8" stroke-width="1"  opacity="1"></path><path fill="none" d="M 67 207.5 L 590 207.5" stroke="#D8D8D8" stroke-width="1"  opacity="1"></path><path fill="none" d="M 67 156.5 L 590 156.5" stroke="#D8D8D8" stroke-width="1"  opacity="1"></path><path fill="none" d="M 67 104.5 L 590 104.5" stroke="#D8D8D8" stroke-width="1"  opacity="1"></path><path fill="none" d="M 67 52.5 L 590 52.5" stroke="#D8D8D8" stroke-width="1"  opacity="1"></path></g><g class="highcharts-axis" ><path fill="none" d="M 97.5 258 L 97.5 268" stroke="#C0D0E0" stroke-width="1" opacity="1"></path><path fill="none" d="M 128.5 258 L 128.5 268" stroke="#C0D0E0" stroke-width="1" opacity="1"></path><path fill="none" d="M 158.5 258 L 158.5 268" stroke="#C0D0E0" stroke-width="1" opacity="1"></path><path fill="none" d="M 189.5 258 L 189.5 268" stroke="#C0D0E0" stroke-width="1" opacity="1"></path><path fill="none" d="M 220.5 258 L 220.5 268" stroke="#C0D0E0" stroke-width="1" opacity="1"></path><path fill="none" d="M 251.5 258 L 251.5 268" stroke="#C0D0E0" stroke-width="1" opacity="1"></path><path fill="none" d="M 281.5 258 L 281.5 268" stroke="#C0D0E0" stroke-width="1" opacity="1"></path><path fill="none" d="M 312.5 258 L 312.5 268" stroke="#C0D0E0" stroke-width="1" opacity="1"></path><path fill="none" d="M 343.5 258 L 343.5 268" stroke="#C0D0E0" stroke-width="1" opacity="1"></path><path fill="none" d="M 374.5 258 L 374.5 268" stroke="#C0D0E0" stroke-width="1" opacity="1"></path><path fill="none" d="M 404.5 258 L 404.5 268" stroke="#C0D0E0" stroke-width="1" opacity="1"></path><path fill="none" d="M 435.5 258 L 435.5 268" stroke="#C0D0E0" stroke-width="1" opacity="1"></path><path fill="none" d="M 466.5 258 L 466.5 268" stroke="#C0D0E0" stroke-width="1" opacity="1"></path><path fill="none" d="M 497.5 258 L 497.5 268" stroke="#C0D0E0" stroke-width="1" opacity="1"></path><path fill="none" d="M 527.5 258 L 527.5 268" stroke="#C0D0E0" stroke-width="1" opacity="1"></path><path fill="none" d="M 558.5 258 L 558.5 268" stroke="#C0D0E0" stroke-width="1" opacity="1"></path><path fill="none" d="M 590.5 258 L 590.5 268" stroke="#C0D0E0" stroke-width="1" opacity="1"></path><path fill="none" d="M 66.5 258 L 66.5 268" stroke="#C0D0E0" stroke-width="1" opacity="1"></path><text x="328.5"  text-anchor="middle" transform="translate(0,0)" class=" highcharts-xaxis-title" style="color:#707070;fill:#707070;" y="337.6019017597487">Dates</text><path fill="none" d="M 67 258.5 L 590 258.5" stroke="#C0D0E0" stroke-width="1" ></path></g><g class="highcharts-axis" ><text x="28.09375"  text-anchor="middle" transform="translate(0,0) rotate(270 28.09375 155.5)" class=" highcharts-yaxis-title" style="color:#707070;fill:#707070;" y="155.5">KWH</text></g><g class="highcharts-series-group" ><g class="highcharts-series highcharts-series-0"  transform="translate(67,53) scale(1 1)" clip-path="url(#highcharts-65)"><rect x="7.5" y="29.5" width="15" height="176" stroke="#FFFFFF" stroke-width="1" fill="#90ed7d" rx="0" ry="0"></rect><rect x="38.5" y="42.5" width="15" height="163" stroke="#FFFFFF" stroke-width="1" fill="#90ed7d" rx="0" ry="0"></rect><rect x="69.5" y="36.5" width="15" height="169" stroke="#FFFFFF" stroke-width="1" fill="#90ed7d" rx="0" ry="0"></rect><rect x="99.5" y="33.5" width="15" height="172" stroke="#FFFFFF" stroke-width="1" fill="#90ed7d" rx="0" ry="0"></rect><rect x="130.5" y="33.5" width="15" height="172" stroke="#FFFFFF" stroke-width="1" fill="#90ed7d" rx="0" ry="0"></rect><rect x="161.5" y="33.5" width="15" height="172" stroke="#FFFFFF" stroke-width="1" fill="#90ed7d" rx="0" ry="0"></rect><rect x="192.5" y="27.5" width="15" height="178" stroke="#FFFFFF" stroke-width="1" fill="#90ed7d" rx="0" ry="0"></rect><rect x="222.5" y="30.5" width="15" height="175" stroke="#FFFFFF" stroke-width="1" fill="#90ed7d" rx="0" ry="0"></rect><rect x="253.5" y="33.5" width="15" height="172" stroke="#FFFFFF" stroke-width="1" fill="#90ed7d" rx="0" ry="0"></rect><rect x="284.5" y="25.5" width="15" height="180" stroke="#FFFFFF" stroke-width="1" fill="#90ed7d" rx="0" ry="0"></rect><rect x="315.5" y="37.5" width="15" height="168" stroke="#FFFFFF" stroke-width="1" fill="#90ed7d" rx="0" ry="0"></rect><rect x="345.5" y="31.5" width="15" height="174" stroke="#FFFFFF" stroke-width="1" fill="#90ed7d" rx="0" ry="0"></rect><rect x="376.5" y="46.5" width="15" height="159" stroke="#FFFFFF" stroke-width="1" fill="#90ed7d" rx="0" ry="0"></rect><rect x="407.5" y="21.5" width="15" height="184" stroke="#FFFFFF" stroke-width="1" fill="#90ed7d" rx="0" ry="0"></rect><rect x="438.5" y="31.5" width="15" height="174" stroke="#FFFFFF" stroke-width="1" fill="#90ed7d" rx="0" ry="0"></rect><rect x="468.5" y="43.5" width="15" height="162" stroke="#FFFFFF" stroke-width="1" fill="#90ed7d" rx="0" ry="0"></rect><rect x="499.5" y="20.5" width="15" height="185" stroke="#FFFFFF" stroke-width="1" fill="#90ed7d" rx="0" ry="0"></rect></g><g class="highcharts-markers highcharts-series-0"  transform="translate(67,53) scale(1 1)" clip-path="none"></g></g><text x="280" text-anchor="middle" class="highcharts-title"  style="color:#333333;font-size:18px;fill:#333333;width:536px;" y="24"><tspan>Energie consommée entre 2/6/2009 et 18/6/2009</tspan></text><g class="highcharts-legend"  transform="translate(240,356)"><g ><g><g class="highcharts-legend-item"  transform="translate(8,3)"><text x="21" style="color:#333333;font-size:12px;font-weight:bold;cursor:pointer;fill:#333333;" text-anchor="start"  y="15"><tspan>Energie active </tspan></text><rect x="0" y="4" width="16" height="12"  fill="#90ed7d"></rect></g></g></g></g><g class="highcharts-axis-labels highcharts-xaxis-labels" ><text x="84.97507780552715" style="color:#606060;cursor:default;font-size:11px;fill:#606060;width:400px;text-overflow:ellipsis;" text-anchor="end" transform="translate(0,0) rotate(-45 84.97507780552715 274)" y="274" opacity="1"><tspan>2009/6/2</tspan></text><text x="115.7397836878801" style="color:#606060;cursor:default;font-size:11px;fill:#606060;width:400px;text-overflow:ellipsis;" text-anchor="end" transform="translate(0,0) rotate(-45 115.7397836878801 274)" y="274" opacity="1"><tspan>2009/6/3</tspan></text><text x="146.50448957023303" style="color:#606060;cursor:default;font-size:11px;fill:#606060;width:400px;text-overflow:ellipsis;" text-anchor="end" transform="translate(0,0) rotate(-45 146.50448957023303 274)" y="274" opacity="1"><tspan>2009/6/4</tspan></text><text x="177.269195452586" style="color:#606060;cursor:default;font-size:11px;fill:#606060;width:400px;text-overflow:ellipsis;" text-anchor="end" transform="translate(0,0) rotate(-45 177.269195452586 274)" y="274" opacity="1"><tspan>2009/6/5</tspan></text><text x="208.03390133493892" style="color:#606060;cursor:default;font-size:11px;fill:#606060;width:400px;text-overflow:ellipsis;" text-anchor="end" transform="translate(0,0) rotate(-45 208.03390133493892 274)" y="274" opacity="1"><tspan>2009/6/6</tspan></text><text x="238.79860721729187" style="color:#606060;cursor:default;font-size:11px;fill:#606060;width:400px;text-overflow:ellipsis;" text-anchor="end" transform="translate(0,0) rotate(-45 238.79860721729187 274)" y="274" opacity="1"><tspan>2009/6/7</tspan></text><text x="269.5633130996448" style="color:#606060;cursor:default;font-size:11px;fill:#606060;width:400px;text-overflow:ellipsis;" text-anchor="end" transform="translate(0,0) rotate(-45 269.5633130996448 274)" y="274" opacity="1"><tspan>2009/6/8</tspan></text><text x="300.32801898199773" style="color:#606060;cursor:default;font-size:11px;fill:#606060;width:400px;text-overflow:ellipsis;" text-anchor="end" transform="translate(0,0) rotate(-45 300.32801898199773 274)" y="274" opacity="1"><tspan>2009/6/9</tspan></text><text x="331.09272486435066" style="color:#606060;cursor:default;font-size:11px;fill:#606060;width:400px;text-overflow:ellipsis;" text-anchor="end" transform="translate(0,0) rotate(-45 331.09272486435066 274)" y="274" opacity="1"><tspan>2009/6/10</tspan></text><text x="361.8574307467036" style="color:#606060;cursor:default;font-size:11px;fill:#606060;width:400px;text-overflow:ellipsis;" text-anchor="end" transform="translate(0,0) rotate(-45 361.8574307467036 274)" y="274" opacity="1"><tspan>2009/6/11</tspan></text><text x="392.62213662905657" style="color:#606060;cursor:default;font-size:11px;fill:#606060;width:400px;text-overflow:ellipsis;" text-anchor="end" transform="translate(0,0) rotate(-45 392.62213662905657 274)" y="274" opacity="1"><tspan>2009/6/12</tspan></text><text x="423.3868425114095" style="color:#606060;cursor:default;font-size:11px;fill:#606060;width:400px;text-overflow:ellipsis;" text-anchor="end" transform="translate(0,0) rotate(-45 423.3868425114095 274)" y="274" opacity="1"><tspan>2009/6/13</tspan></text><text x="454.1515483937624" style="color:#606060;cursor:default;font-size:11px;fill:#606060;width:400px;text-overflow:ellipsis;" text-anchor="end" transform="translate(0,0) rotate(-45 454.1515483937624 274)" y="274" opacity="1"><tspan>2009/6/14</tspan></text><text x="484.91625427611535" style="color:#606060;cursor:default;font-size:11px;fill:#606060;width:400px;text-overflow:ellipsis;" text-anchor="end" transform="translate(0,0) rotate(-45 484.91625427611535 274)" y="274" opacity="1"><tspan>2009/6/15</tspan></text><text x="515.6809601584683" style="color:#606060;cursor:default;font-size:11px;fill:#606060;width:400px;text-overflow:ellipsis;" text-anchor="end" transform="translate(0,0) rotate(-45 515.6809601584683 274)" y="274" opacity="1"><tspan>2009/6/16</tspan></text><text x="546.4456660408213" style="color:#606060;cursor:default;font-size:11px;fill:#606060;width:400px;text-overflow:ellipsis;" text-anchor="end" transform="translate(0,0) rotate(-45 546.4456660408213 274)" y="274" opacity="1"><tspan>2009/6/17</tspan></text><text x="577.2103719231742" style="color:#606060;cursor:default;font-size:11px;fill:#606060;width:400px;text-overflow:ellipsis;" text-anchor="end" transform="translate(0,0) rotate(-45 577.2103719231742 274)" y="274" opacity="1"><tspan>2009/6/18</tspan></text></g><g class="highcharts-axis-labels highcharts-yaxis-labels" ><text x="52" style="color:#606060;cursor:default;font-size:11px;fill:#606060;width:188px;text-overflow:clip;" text-anchor="end" transform="translate(0,0)" y="261" opacity="1">0</text><text x="52" style="color:#606060;cursor:default;font-size:11px;fill:#606060;width:188px;text-overflow:clip;" text-anchor="end" transform="translate(0,0)" y="209" opacity="1">5</text><text x="52" style="color:#606060;cursor:default;font-size:11px;fill:#606060;width:188px;text-overflow:clip;" text-anchor="end" transform="translate(0,0)" y="158" opacity="1">10</text><text x="52" style="color:#606060;cursor:default;font-size:11px;fill:#606060;width:188px;text-overflow:clip;" text-anchor="end" transform="translate(0,0)" y="107" opacity="1">15</text><text x="52" style="color:#606060;cursor:default;font-size:11px;fill:#606060;width:188px;text-overflow:clip;" text-anchor="end" transform="translate(0,0)" y="56" opacity="1">20</text></g><g class="highcharts-tooltip"  style="cursor:default;padding:0;pointer-events:none;white-space:nowrap;" transform="translate(0,-9999)"><path fill="none" d="M 3.5 0.5 L 13.5 0.5 C 16.5 0.5 16.5 0.5 16.5 3.5 L 16.5 13.5 C 16.5 16.5 16.5 16.5 13.5 16.5 L 3.5 16.5 C 0.5 16.5 0.5 16.5 0.5 13.5 L 0.5 3.5 C 0.5 0.5 0.5 0.5 3.5 0.5"  stroke="black" stroke-opacity="0.049999999999999996" stroke-width="5" transform="translate(1, 1)"></path><path fill="none" d="M 3.5 0.5 L 13.5 0.5 C 16.5 0.5 16.5 0.5 16.5 3.5 L 16.5 13.5 C 16.5 16.5 16.5 16.5 13.5 16.5 L 3.5 16.5 C 0.5 16.5 0.5 16.5 0.5 13.5 L 0.5 3.5 C 0.5 0.5 0.5 0.5 3.5 0.5"  stroke="black" stroke-opacity="0.09999999999999999" stroke-width="3" transform="translate(1, 1)"></path><path fill="none" d="M 3.5 0.5 L 13.5 0.5 C 16.5 0.5 16.5 0.5 16.5 3.5 L 16.5 13.5 C 16.5 16.5 16.5 16.5 13.5 16.5 L 3.5 16.5 C 0.5 16.5 0.5 16.5 0.5 13.5 L 0.5 3.5 C 0.5 0.5 0.5 0.5 3.5 0.5"  stroke="black" stroke-opacity="0.15" stroke-width="1" transform="translate(1, 1)"></path><path fill="rgb(249, 249, 249)" fill-opacity=" .85" d="M 3.5 0.5 L 13.5 0.5 C 16.5 0.5 16.5 0.5 16.5 3.5 L 16.5 13.5 C 16.5 16.5 16.5 16.5 13.5 16.5 L 3.5 16.5 C 0.5 16.5 0.5 16.5 0.5 13.5 L 0.5 3.5 C 0.5 0.5 0.5 0.5 3.5 0.5"></path><text x="8"  style="font-size:12px;color:#333333;fill:#333333;" y="20"></text></g></svg>