<svg xmlns:xlink="http://www.w3.org/1999/xlink" version="1.1" style="font-family:'lucida grande', 'lucida sans unicode', arial, helvetica, sans-serif;font-size:12px;" xmlns="http://www.w3.org/2000/svg" width="600" height="400"><desc>Created with Highstock 4.2.1</desc><defs><clipPath id="highcharts-99"><rect x="0" y="0" width="520" height="205"></rect></clipPath></defs><rect x="0" y="0" width="600" height="400" strokeWidth="0" fill="#FFFFFF" class=" highcharts-background"></rect><path fill="none" d="M 70 258.5 L 590 258.5" stroke="#808050" stroke-width="1"></path><g class="highcharts-grid" ></g><g class="highcharts-grid" ><path fill="none" d="M 70 258.5 L 590 258.5" stroke="#D8D8D8" stroke-width="1"  opacity="1"></path><path fill="none" d="M 70 190.5 L 590 190.5" stroke="#D8D8D8" stroke-width="1"  opacity="1"></path><path fill="none" d="M 70 121.5 L 590 121.5" stroke="#D8D8D8" stroke-width="1"  opacity="1"></path><path fill="none" d="M 70 52.5 L 590 52.5" stroke="#D8D8D8" stroke-width="1"  opacity="1"></path></g><g class="highcharts-axis" ><path fill="none" d="M 77.5 258 L 77.5 268" stroke="#C0D0E0" stroke-width="1" opacity="1"></path><path fill="none" d="M 111.5 258 L 111.5 268" stroke="#C0D0E0" stroke-width="1" opacity="1"></path><path fill="none" d="M 144.5 258 L 144.5 268" stroke="#C0D0E0" stroke-width="1" opacity="1"></path><path fill="none" d="M 178.5 258 L 178.5 268" stroke="#C0D0E0" stroke-width="1" opacity="1"></path><path fill="none" d="M 212.5 258 L 212.5 268" stroke="#C0D0E0" stroke-width="1" opacity="1"></path><path fill="none" d="M 245.5 258 L 245.5 268" stroke="#C0D0E0" stroke-width="1" opacity="1"></path><path fill="none" d="M 279.5 258 L 279.5 268" stroke="#C0D0E0" stroke-width="1" opacity="1"></path><path fill="none" d="M 312.5 258 L 312.5 268" stroke="#C0D0E0" stroke-width="1" opacity="1"></path><path fill="none" d="M 346.5 258 L 346.5 268" stroke="#C0D0E0" stroke-width="1" opacity="1"></path><path fill="none" d="M 379.5 258 L 379.5 268" stroke="#C0D0E0" stroke-width="1" opacity="1"></path><path fill="none" d="M 413.5 258 L 413.5 268" stroke="#C0D0E0" stroke-width="1" opacity="1"></path><path fill="none" d="M 446.5 258 L 446.5 268" stroke="#C0D0E0" stroke-width="1" opacity="1"></path><path fill="none" d="M 480.5 258 L 480.5 268" stroke="#C0D0E0" stroke-width="1" opacity="1"></path><path fill="none" d="M 514.5 258 L 514.5 268" stroke="#C0D0E0" stroke-width="1" opacity="1"></path><path fill="none" d="M 547.5 258 L 547.5 268" stroke="#C0D0E0" stroke-width="1" opacity="1"></path><path fill="none" d="M 581.5 258 L 581.5 268" stroke="#C0D0E0" stroke-width="1" opacity="1"></path><text x="330"  text-anchor="middle" transform="translate(0,0)" class=" highcharts-xaxis-title" style="color:#707070;fill:#707070;" y="337.6019017597487">Dates</text><path fill="none" d="M 70 258.5 L 590 258.5" stroke="#C0D0E0" stroke-width="1" ></path></g><g class="highcharts-axis" ><text x="27.609375"  text-anchor="middle" transform="translate(0,0) rotate(270 27.609375 155.5)" class=" highcharts-yaxis-title" style="color:#707070;fill:#707070;" y="155.5">KWH</text></g><g class="highcharts-series-group" ><g class="highcharts-series highcharts-series-0"  transform="translate(70,53) scale(1 1)" clip-path="url(#highcharts-99)"><rect x="3.5" y="205.5" width="9" height="0" stroke="#FFFFFF" stroke-width="1" fill="#90ed7d" rx="0" ry="0"></rect><rect x="20.5" y="205.5" width="9" height="0" stroke="#FFFFFF" stroke-width="1" fill="#90ed7d" rx="0" ry="0"></rect><rect x="37.5" y="205.5" width="9" height="0" stroke="#FFFFFF" stroke-width="1" fill="#90ed7d" rx="0" ry="0"></rect><rect x="54.5" y="205.5" width="9" height="0" stroke="#FFFFFF" stroke-width="1" fill="#90ed7d" rx="0" ry="0"></rect><rect x="70.5" y="205.5" width="9" height="0" stroke="#FFFFFF" stroke-width="1" fill="#90ed7d" rx="0" ry="0"></rect><rect x="87.5" y="205.5" width="9" height="0" stroke="#FFFFFF" stroke-width="1" fill="#90ed7d" rx="0" ry="0"></rect><rect x="104.5" y="50.5" width="9" height="155" stroke="#FFFFFF" stroke-width="1" fill="#90ed7d" rx="0" ry="0"></rect><rect x="121.5" y="168.5" width="9" height="37" stroke="#FFFFFF" stroke-width="1" fill="#90ed7d" rx="0" ry="0"></rect><rect x="138.5" y="205.5" width="9" height="0" stroke="#FFFFFF" stroke-width="1" fill="#90ed7d" rx="0" ry="0"></rect><rect x="154.5" y="205.5" width="9" height="0" stroke="#FFFFFF" stroke-width="1" fill="#90ed7d" rx="0" ry="0"></rect><rect x="171.5" y="205.5" width="9" height="0" stroke="#FFFFFF" stroke-width="1" fill="#90ed7d" rx="0" ry="0"></rect><rect x="188.5" y="205.5" width="9" height="0" stroke="#FFFFFF" stroke-width="1" fill="#90ed7d" rx="0" ry="0"></rect><rect x="205.5" y="205.5" width="9" height="0" stroke="#FFFFFF" stroke-width="1" fill="#90ed7d" rx="0" ry="0"></rect><rect x="221.5" y="205.5" width="9" height="0" stroke="#FFFFFF" stroke-width="1" fill="#90ed7d" rx="0" ry="0"></rect><rect x="238.5" y="205.5" width="9" height="0" stroke="#FFFFFF" stroke-width="1" fill="#90ed7d" rx="0" ry="0"></rect><rect x="255.5" y="205.5" width="9" height="0" stroke="#FFFFFF" stroke-width="1" fill="#90ed7d" rx="0" ry="0"></rect><rect x="272.5" y="205.5" width="9" height="0" stroke="#FFFFFF" stroke-width="1" fill="#90ed7d" rx="0" ry="0"></rect><rect x="289.5" y="205.5" width="9" height="0" stroke="#FFFFFF" stroke-width="1" fill="#90ed7d" rx="0" ry="0"></rect><rect x="305.5" y="205.5" width="9" height="0" stroke="#FFFFFF" stroke-width="1" fill="#90ed7d" rx="0" ry="0"></rect><rect x="322.5" y="205.5" width="9" height="0" stroke="#FFFFFF" stroke-width="1" fill="#90ed7d" rx="0" ry="0"></rect><rect x="339.5" y="205.5" width="9" height="0" stroke="#FFFFFF" stroke-width="1" fill="#90ed7d" rx="0" ry="0"></rect><rect x="356.5" y="205.5" width="9" height="0" stroke="#FFFFFF" stroke-width="1" fill="#90ed7d" rx="0" ry="0"></rect><rect x="372.5" y="205.5" width="9" height="0" stroke="#FFFFFF" stroke-width="1" fill="#90ed7d" rx="0" ry="0"></rect><rect x="389.5" y="205.5" width="9" height="0" stroke="#FFFFFF" stroke-width="1" fill="#90ed7d" rx="0" ry="0"></rect><rect x="406.5" y="205.5" width="9" height="0" stroke="#FFFFFF" stroke-width="1" fill="#90ed7d" rx="0" ry="0"></rect><rect x="423.5" y="205.5" width="9" height="0" stroke="#FFFFFF" stroke-width="1" fill="#90ed7d" rx="0" ry="0"></rect><rect x="439.5" y="205.5" width="9" height="0" stroke="#FFFFFF" stroke-width="1" fill="#90ed7d" rx="0" ry="0"></rect><rect x="456.5" y="205.5" width="9" height="0" stroke="#FFFFFF" stroke-width="1" fill="#90ed7d" rx="0" ry="0"></rect><rect x="473.5" y="205.5" width="9" height="0" stroke="#FFFFFF" stroke-width="1" fill="#90ed7d" rx="0" ry="0"></rect><rect x="490.5" y="205.5" width="9" height="0" stroke="#FFFFFF" stroke-width="1" fill="#90ed7d" rx="0" ry="0"></rect><rect x="507.5" y="205.5" width="9" height="0" stroke="#FFFFFF" stroke-width="1" fill="#90ed7d" rx="0" ry="0"></rect></g><g class="highcharts-markers highcharts-series-0"  transform="translate(70,53) scale(1 1)" clip-path="none"></g></g><text x="280" text-anchor="middle" class="highcharts-title"  style="color:#333333;font-size:18px;fill:#333333;width:536px;" y="24"><tspan>Energie consommee entre 1/8/2010 et 31/8/2010</tspan></text><g class="highcharts-legend"  transform="translate(240,356)"><g ><g><g class="highcharts-legend-item"  transform="translate(8,3)"><text x="21" style="color:#333333;font-size:12px;font-weight:bold;cursor:pointer;fill:#333333;" text-anchor="start"  y="15"><tspan>Energie active </tspan></text><rect x="0" y="4" width="16" height="12"  fill="#90ed7d"></rect></g></g></g></g><g class="highcharts-axis-labels highcharts-xaxis-labels" ><text x="80.97982163854422" style="color:#606060;cursor:default;font-size:11px;fill:#606060;width:400px;text-overflow:ellipsis;" text-anchor="end" transform="translate(0,0) rotate(-45 80.97982163854422 274)" y="274" opacity="1"><tspan>2010/8/1</tspan></text><text x="114.52820873531842" style="color:#606060;cursor:default;font-size:11px;fill:#606060;width:400px;text-overflow:ellipsis;" text-anchor="end" transform="translate(0,0) rotate(-45 114.52820873531842 274)" y="274" opacity="1"><tspan>2010/8/3</tspan></text><text x="148.07659583209264" style="color:#606060;cursor:default;font-size:11px;fill:#606060;width:400px;text-overflow:ellipsis;" text-anchor="end" transform="translate(0,0) rotate(-45 148.07659583209264 274)" y="274" opacity="1"><tspan>2010/8/5</tspan></text><text x="181.6249829288668" style="color:#606060;cursor:default;font-size:11px;fill:#606060;width:400px;text-overflow:ellipsis;" text-anchor="end" transform="translate(0,0) rotate(-45 181.6249829288668 274)" y="274" opacity="1"><tspan>2010/8/7</tspan></text><text x="215.173370025641" style="color:#606060;cursor:default;font-size:11px;fill:#606060;width:400px;text-overflow:ellipsis;" text-anchor="end" transform="translate(0,0) rotate(-45 215.173370025641 274)" y="274" opacity="1"><tspan>2010/8/9</tspan></text><text x="248.7217571224152" style="color:#606060;cursor:default;font-size:11px;fill:#606060;width:400px;text-overflow:ellipsis;" text-anchor="end" transform="translate(0,0) rotate(-45 248.7217571224152 274)" y="274" opacity="1"><tspan>2010/8/11</tspan></text><text x="282.2701442191893" style="color:#606060;cursor:default;font-size:11px;fill:#606060;width:400px;text-overflow:ellipsis;" text-anchor="end" transform="translate(0,0) rotate(-45 282.2701442191893 274)" y="274" opacity="1"><tspan>2010/8/13</tspan></text><text x="315.8185313159635" style="color:#606060;cursor:default;font-size:11px;fill:#606060;width:400px;text-overflow:ellipsis;" text-anchor="end" transform="translate(0,0) rotate(-45 315.8185313159635 274)" y="274" opacity="1"><tspan>2010/8/15</tspan></text><text x="349.36691841273773" style="color:#606060;cursor:default;font-size:11px;fill:#606060;width:400px;text-overflow:ellipsis;" text-anchor="end" transform="translate(0,0) rotate(-45 349.36691841273773 274)" y="274" opacity="1"><tspan>2010/8/17</tspan></text><text x="382.91530550951194" style="color:#606060;cursor:default;font-size:11px;fill:#606060;width:400px;text-overflow:ellipsis;" text-anchor="end" transform="translate(0,0) rotate(-45 382.91530550951194 274)" y="274" opacity="1"><tspan>2010/8/19</tspan></text><text x="416.46369260628614" style="color:#606060;cursor:default;font-size:11px;fill:#606060;width:400px;text-overflow:ellipsis;" text-anchor="end" transform="translate(0,0) rotate(-45 416.46369260628614 274)" y="274" opacity="1"><tspan>2010/8/21</tspan></text><text x="450.0120797030603" style="color:#606060;cursor:default;font-size:11px;fill:#606060;width:400px;text-overflow:ellipsis;" text-anchor="end" transform="translate(0,0) rotate(-45 450.0120797030603 274)" y="274" opacity="1"><tspan>2010/8/23</tspan></text><text x="483.5604667998345" style="color:#606060;cursor:default;font-size:11px;fill:#606060;width:400px;text-overflow:ellipsis;" text-anchor="end" transform="translate(0,0) rotate(-45 483.5604667998345 274)" y="274" opacity="1"><tspan>2010/8/25</tspan></text><text x="517.1088538966087" style="color:#606060;cursor:default;font-size:11px;fill:#606060;width:400px;text-overflow:ellipsis;" text-anchor="end" transform="translate(0,0) rotate(-45 517.1088538966087 274)" y="274" opacity="1"><tspan>2010/8/27</tspan></text><text x="550.6572409933829" style="color:#606060;cursor:default;font-size:11px;fill:#606060;width:400px;text-overflow:ellipsis;" text-anchor="end" transform="translate(0,0) rotate(-45 550.6572409933829 274)" y="274" opacity="1"><tspan>2010/8/29</tspan></text><text x="584.205628090157" style="color:#606060;cursor:default;font-size:11px;fill:#606060;width:400px;text-overflow:ellipsis;" text-anchor="end" transform="translate(0,0) rotate(-45 584.205628090157 274)" y="274" opacity="1"><tspan>2010/8/31</tspan></text></g><g class="highcharts-axis-labels highcharts-yaxis-labels" ><text x="55" style="color:#606060;cursor:default;font-size:11px;fill:#606060;width:188px;text-overflow:clip;" text-anchor="end" transform="translate(0,0)" y="261" opacity="1">0</text><text x="55" style="color:#606060;cursor:default;font-size:11px;fill:#606060;width:188px;text-overflow:clip;" text-anchor="end" transform="translate(0,0)" y="192" opacity="1">0.5</text><text x="55" style="color:#606060;cursor:default;font-size:11px;fill:#606060;width:188px;text-overflow:clip;" text-anchor="end" transform="translate(0,0)" y="124" opacity="1">1</text><text x="55" style="color:#606060;cursor:default;font-size:11px;fill:#606060;width:188px;text-overflow:clip;" text-anchor="end" transform="translate(0,0)" y="56" opacity="1">1.5</text></g><g class="highcharts-tooltip"  style="cursor:default;padding:0;pointer-events:none;white-space:nowrap;" transform="translate(0,-9999)"><path fill="none" d="M 3.5 0.5 L 13.5 0.5 C 16.5 0.5 16.5 0.5 16.5 3.5 L 16.5 13.5 C 16.5 16.5 16.5 16.5 13.5 16.5 L 3.5 16.5 C 0.5 16.5 0.5 16.5 0.5 13.5 L 0.5 3.5 C 0.5 0.5 0.5 0.5 3.5 0.5"  stroke="black" stroke-opacity="0.049999999999999996" stroke-width="5" transform="translate(1, 1)"></path><path fill="none" d="M 3.5 0.5 L 13.5 0.5 C 16.5 0.5 16.5 0.5 16.5 3.5 L 16.5 13.5 C 16.5 16.5 16.5 16.5 13.5 16.5 L 3.5 16.5 C 0.5 16.5 0.5 16.5 0.5 13.5 L 0.5 3.5 C 0.5 0.5 0.5 0.5 3.5 0.5"  stroke="black" stroke-opacity="0.09999999999999999" stroke-width="3" transform="translate(1, 1)"></path><path fill="none" d="M 3.5 0.5 L 13.5 0.5 C 16.5 0.5 16.5 0.5 16.5 3.5 L 16.5 13.5 C 16.5 16.5 16.5 16.5 13.5 16.5 L 3.5 16.5 C 0.5 16.5 0.5 16.5 0.5 13.5 L 0.5 3.5 C 0.5 0.5 0.5 0.5 3.5 0.5"  stroke="black" stroke-opacity="0.15" stroke-width="1" transform="translate(1, 1)"></path><path fill="rgb(249, 249, 249)" fill-opacity=" .85" d="M 3.5 0.5 L 13.5 0.5 C 16.5 0.5 16.5 0.5 16.5 3.5 L 16.5 13.5 C 16.5 16.5 16.5 16.5 13.5 16.5 L 3.5 16.5 C 0.5 16.5 0.5 16.5 0.5 13.5 L 0.5 3.5 C 0.5 0.5 0.5 0.5 3.5 0.5"></path><text x="8"  style="font-size:12px;color:#333333;fill:#333333;" y="20"></text></g></svg>