<svg xmlns:xlink="http://www.w3.org/1999/xlink" version="1.1" style="font-family:'lucida grande', 'lucida sans unicode', arial, helvetica, sans-serif;font-size:12px;" xmlns="http://www.w3.org/2000/svg" width="600" height="400"><desc>Created with Highstock 4.2.1</desc><defs><clipPath id="highcharts-53"><rect x="0" y="0" width="523" height="205"></rect></clipPath></defs><rect x="0" y="0" width="600" height="400" strokeWidth="0" fill="#FFFFFF" class=" highcharts-background"></rect><path fill="none" d="M 67 258.5 L 590 258.5" stroke="#808050" stroke-width="1"></path><g class="highcharts-grid" ></g><g class="highcharts-grid" ><path fill="none" d="M 67 258.5 L 590 258.5" stroke="#D8D8D8" stroke-width="1"  opacity="1"></path><path fill="none" d="M 67 207.5 L 590 207.5" stroke="#D8D8D8" stroke-width="1"  opacity="1"></path><path fill="none" d="M 67 156.5 L 590 156.5" stroke="#D8D8D8" stroke-width="1"  opacity="1"></path><path fill="none" d="M 67 104.5 L 590 104.5" stroke="#D8D8D8" stroke-width="1"  opacity="1"></path><path fill="none" d="M 67 52.5 L 590 52.5" stroke="#D8D8D8" stroke-width="1"  opacity="1"></path></g><g class="highcharts-axis" ><path fill="none" d="M 97.5 258 L 97.5 268" stroke="#C0D0E0" stroke-width="1" opacity="1"></path><path fill="none" d="M 128.5 258 L 128.5 268" stroke="#C0D0E0" stroke-width="1" opacity="1"></path><path fill="none" d="M 158.5 258 L 158.5 268" stroke="#C0D0E0" stroke-width="1" opacity="1"></path><path fill="none" d="M 189.5 258 L 189.5 268" stroke="#C0D0E0" stroke-width="1" opacity="1"></path><path fill="none" d="M 220.5 258 L 220.5 268" stroke="#C0D0E0" stroke-width="1" opacity="1"></path><path fill="none" d="M 251.5 258 L 251.5 268" stroke="#C0D0E0" stroke-width="1" opacity="1"></path><path fill="none" d="M 281.5 258 L 281.5 268" stroke="#C0D0E0" stroke-width="1" opacity="1"></path><path fill="none" d="M 312.5 258 L 312.5 268" stroke="#C0D0E0" stroke-width="1" opacity="1"></path><path fill="none" d="M 343.5 258 L 343.5 268" stroke="#C0D0E0" stroke-width="1" opacity="1"></path><path fill="none" d="M 374.5 258 L 374.5 268" stroke="#C0D0E0" stroke-width="1" opacity="1"></path><path fill="none" d="M 404.5 258 L 404.5 268" stroke="#C0D0E0" stroke-width="1" opacity="1"></path><path fill="none" d="M 435.5 258 L 435.5 268" stroke="#C0D0E0" stroke-width="1" opacity="1"></path><path fill="none" d="M 466.5 258 L 466.5 268" stroke="#C0D0E0" stroke-width="1" opacity="1"></path><path fill="none" d="M 497.5 258 L 497.5 268" stroke="#C0D0E0" stroke-width="1" opacity="1"></path><path fill="none" d="M 527.5 258 L 527.5 268" stroke="#C0D0E0" stroke-width="1" opacity="1"></path><path fill="none" d="M 558.5 258 L 558.5 268" stroke="#C0D0E0" stroke-width="1" opacity="1"></path><path fill="none" d="M 590.5 258 L 590.5 268" stroke="#C0D0E0" stroke-width="1" opacity="1"></path><path fill="none" d="M 66.5 258 L 66.5 268" stroke="#C0D0E0" stroke-width="1" opacity="1"></path><text x="328.5"  text-anchor="middle" transform="translate(0,0)" class=" highcharts-xaxis-title" style="color:#707070;fill:#707070;" y="337.6019017597487">Dates</text><path fill="none" d="M 67 258.5 L 590 258.5" stroke="#C0D0E0" stroke-width="1" ></path></g><g class="highcharts-axis" ><text x="28.09375"  text-anchor="middle" transform="translate(0,0) rotate(270 28.09375 155.5)" class=" highcharts-yaxis-title" style="color:#707070;fill:#707070;" y="155.5">Ampere</text></g><g class="highcharts-series-group" ><g class="highcharts-series highcharts-series-0"  transform="translate(67,53) scale(1 1)" clip-path="url(#highcharts-53)"><path fill="#f15c80" d="M 15.382352941176471 51.25 L 46.14705882352941 51.25 L 76.91176470588235 51.25 L 107.6764705882353 51.25 L 138.44117647058823 51.25 L 169.20588235294116 51.25 L 199.97058823529412 51.25 L 230.73529411764707 51.25 L 261.5 51.25 L 292.2647058823529 51.25 L 323.02941176470586 51.25 L 353.79411764705884 51.25 L 384.55882352941177 51.25 L 415.3235294117647 51.25 L 446.0882352941177 51.25 L 476.8529411764706 51.25 L 507.61764705882354 51.25 L 507.61764705882354 205 L 15.382352941176471 205"  fill-opacity="0.75"></path><path fill="none" d="M 15.382352941176471 51.25 L 46.14705882352941 51.25 L 76.91176470588235 51.25 L 107.6764705882353 51.25 L 138.44117647058823 51.25 L 169.20588235294116 51.25 L 199.97058823529412 51.25 L 230.73529411764707 51.25 L 261.5 51.25 L 292.2647058823529 51.25 L 323.02941176470586 51.25 L 353.79411764705884 51.25 L 384.55882352941177 51.25 L 415.3235294117647 51.25 L 446.0882352941177 51.25 L 476.8529411764706 51.25 L 507.61764705882354 51.25" stroke="#f15c80" stroke-width="2"  stroke-linejoin="round" stroke-linecap="round"></path></g><g class="highcharts-markers highcharts-series-0"  transform="translate(67,53) scale(1 1)" clip-path="none"><path fill="#f15c80" d="M 507 47.25 C 512.328 47.25 512.328 55.25 507 55.25 C 501.672 55.25 501.672 47.25 507 47.25 Z"></path><path fill="#f15c80" d="M 476 47.25 C 481.328 47.25 481.328 55.25 476 55.25 C 470.672 55.25 470.672 47.25 476 47.25 Z"></path><path fill="#f15c80" d="M 446 47.25 C 451.328 47.25 451.328 55.25 446 55.25 C 440.672 55.25 440.672 47.25 446 47.25 Z"></path><path fill="#f15c80" d="M 415 47.25 C 420.328 47.25 420.328 55.25 415 55.25 C 409.672 55.25 409.672 47.25 415 47.25 Z"></path><path fill="#f15c80" d="M 384 47.25 C 389.328 47.25 389.328 55.25 384 55.25 C 378.672 55.25 378.672 47.25 384 47.25 Z"></path><path fill="#f15c80" d="M 353 47.25 C 358.328 47.25 358.328 55.25 353 55.25 C 347.672 55.25 347.672 47.25 353 47.25 Z"></path><path fill="#f15c80" d="M 323 47.25 C 328.328 47.25 328.328 55.25 323 55.25 C 317.672 55.25 317.672 47.25 323 47.25 Z"></path><path fill="#f15c80" d="M 292 47.25 C 297.328 47.25 297.328 55.25 292 55.25 C 286.672 55.25 286.672 47.25 292 47.25 Z"></path><path fill="#f15c80" d="M 261 47.25 C 266.328 47.25 266.328 55.25 261 55.25 C 255.672 55.25 255.672 47.25 261 47.25 Z"></path><path fill="#f15c80" d="M 230 47.25 C 235.328 47.25 235.328 55.25 230 55.25 C 224.672 55.25 224.672 47.25 230 47.25 Z"></path><path fill="#f15c80" d="M 199 47.25 C 204.328 47.25 204.328 55.25 199 55.25 C 193.672 55.25 193.672 47.25 199 47.25 Z"></path><path fill="#f15c80" d="M 169 47.25 C 174.328 47.25 174.328 55.25 169 55.25 C 163.672 55.25 163.672 47.25 169 47.25 Z"></path><path fill="#f15c80" d="M 138 47.25 C 143.328 47.25 143.328 55.25 138 55.25 C 132.672 55.25 132.672 47.25 138 47.25 Z"></path><path fill="#f15c80" d="M 107 47.25 C 112.328 47.25 112.328 55.25 107 55.25 C 101.672 55.25 101.672 47.25 107 47.25 Z"></path><path fill="#f15c80" d="M 76 47.25 C 81.328 47.25 81.328 55.25 76 55.25 C 70.672 55.25 70.672 47.25 76 47.25 Z"></path><path fill="#f15c80" d="M 46 47.25 C 51.328 47.25 51.328 55.25 46 55.25 C 40.672 55.25 40.672 47.25 46 47.25 Z"></path><path fill="#f15c80" d="M 15 47.25 C 20.328 47.25 20.328 55.25 15 55.25 C 9.672 55.25 9.672 47.25 15 47.25 Z"></path></g></g><text x="280" text-anchor="middle" class="highcharts-title"  style="color:#333333;font-size:18px;fill:#333333;width:536px;" y="24"><tspan>Intensité soutirée entre 2/6/2009 et 18/6/2009</tspan></text><g class="highcharts-legend"  transform="translate(255,356)"><g ><g><g class="highcharts-legend-item"  transform="translate(8,3)"><text x="21" style="color:#333333;font-size:12px;font-weight:bold;cursor:pointer;fill:#333333;" text-anchor="start"  y="15"><tspan>Intensité </tspan></text><rect x="0" y="4" width="16" height="12"  fill="#f15c80"></rect></g></g></g></g><g class="highcharts-axis-labels highcharts-xaxis-labels" ><text x="84.97507780552715" style="color:#606060;cursor:default;font-size:11px;fill:#606060;width:400px;text-overflow:ellipsis;" text-anchor="end" transform="translate(0,0) rotate(-45 84.97507780552715 274)" y="274" opacity="1"><tspan>2009/6/2</tspan></text><text x="115.7397836878801" style="color:#606060;cursor:default;font-size:11px;fill:#606060;width:400px;text-overflow:ellipsis;" text-anchor="end" transform="translate(0,0) rotate(-45 115.7397836878801 274)" y="274" opacity="1"><tspan>2009/6/3</tspan></text><text x="146.50448957023303" style="color:#606060;cursor:default;font-size:11px;fill:#606060;width:400px;text-overflow:ellipsis;" text-anchor="end" transform="translate(0,0) rotate(-45 146.50448957023303 274)" y="274" opacity="1"><tspan>2009/6/4</tspan></text><text x="177.269195452586" style="color:#606060;cursor:default;font-size:11px;fill:#606060;width:400px;text-overflow:ellipsis;" text-anchor="end" transform="translate(0,0) rotate(-45 177.269195452586 274)" y="274" opacity="1"><tspan>2009/6/5</tspan></text><text x="208.03390133493892" style="color:#606060;cursor:default;font-size:11px;fill:#606060;width:400px;text-overflow:ellipsis;" text-anchor="end" transform="translate(0,0) rotate(-45 208.03390133493892 274)" y="274" opacity="1"><tspan>2009/6/6</tspan></text><text x="238.79860721729187" style="color:#606060;cursor:default;font-size:11px;fill:#606060;width:400px;text-overflow:ellipsis;" text-anchor="end" transform="translate(0,0) rotate(-45 238.79860721729187 274)" y="274" opacity="1"><tspan>2009/6/7</tspan></text><text x="269.5633130996448" style="color:#606060;cursor:default;font-size:11px;fill:#606060;width:400px;text-overflow:ellipsis;" text-anchor="end" transform="translate(0,0) rotate(-45 269.5633130996448 274)" y="274" opacity="1"><tspan>2009/6/8</tspan></text><text x="300.32801898199773" style="color:#606060;cursor:default;font-size:11px;fill:#606060;width:400px;text-overflow:ellipsis;" text-anchor="end" transform="translate(0,0) rotate(-45 300.32801898199773 274)" y="274" opacity="1"><tspan>2009/6/9</tspan></text><text x="331.09272486435066" style="color:#606060;cursor:default;font-size:11px;fill:#606060;width:400px;text-overflow:ellipsis;" text-anchor="end" transform="translate(0,0) rotate(-45 331.09272486435066 274)" y="274" opacity="1"><tspan>2009/6/10</tspan></text><text x="361.8574307467036" style="color:#606060;cursor:default;font-size:11px;fill:#606060;width:400px;text-overflow:ellipsis;" text-anchor="end" transform="translate(0,0) rotate(-45 361.8574307467036 274)" y="274" opacity="1"><tspan>2009/6/11</tspan></text><text x="392.62213662905657" style="color:#606060;cursor:default;font-size:11px;fill:#606060;width:400px;text-overflow:ellipsis;" text-anchor="end" transform="translate(0,0) rotate(-45 392.62213662905657 274)" y="274" opacity="1"><tspan>2009/6/12</tspan></text><text x="423.3868425114095" style="color:#606060;cursor:default;font-size:11px;fill:#606060;width:400px;text-overflow:ellipsis;" text-anchor="end" transform="translate(0,0) rotate(-45 423.3868425114095 274)" y="274" opacity="1"><tspan>2009/6/13</tspan></text><text x="454.1515483937624" style="color:#606060;cursor:default;font-size:11px;fill:#606060;width:400px;text-overflow:ellipsis;" text-anchor="end" transform="translate(0,0) rotate(-45 454.1515483937624 274)" y="274" opacity="1"><tspan>2009/6/14</tspan></text><text x="484.91625427611535" style="color:#606060;cursor:default;font-size:11px;fill:#606060;width:400px;text-overflow:ellipsis;" text-anchor="end" transform="translate(0,0) rotate(-45 484.91625427611535 274)" y="274" opacity="1"><tspan>2009/6/15</tspan></text><text x="515.6809601584683" style="color:#606060;cursor:default;font-size:11px;fill:#606060;width:400px;text-overflow:ellipsis;" text-anchor="end" transform="translate(0,0) rotate(-45 515.6809601584683 274)" y="274" opacity="1"><tspan>2009/6/16</tspan></text><text x="546.4456660408213" style="color:#606060;cursor:default;font-size:11px;fill:#606060;width:400px;text-overflow:ellipsis;" text-anchor="end" transform="translate(0,0) rotate(-45 546.4456660408213 274)" y="274" opacity="1"><tspan>2009/6/17</tspan></text><text x="577.2103719231742" style="color:#606060;cursor:default;font-size:11px;fill:#606060;width:400px;text-overflow:ellipsis;" text-anchor="end" transform="translate(0,0) rotate(-45 577.2103719231742 274)" y="274" opacity="1"><tspan>2009/6/18</tspan></text></g><g class="highcharts-axis-labels highcharts-yaxis-labels" ><text x="52" style="color:#606060;cursor:default;font-size:11px;fill:#606060;width:188px;text-overflow:clip;" text-anchor="end" transform="translate(0,0)" y="261" opacity="1">0</text><text x="52" style="color:#606060;cursor:default;font-size:11px;fill:#606060;width:188px;text-overflow:clip;" text-anchor="end" transform="translate(0,0)" y="209" opacity="1">5</text><text x="52" style="color:#606060;cursor:default;font-size:11px;fill:#606060;width:188px;text-overflow:clip;" text-anchor="end" transform="translate(0,0)" y="158" opacity="1">10</text><text x="52" style="color:#606060;cursor:default;font-size:11px;fill:#606060;width:188px;text-overflow:clip;" text-anchor="end" transform="translate(0,0)" y="107" opacity="1">15</text><text x="52" style="color:#606060;cursor:default;font-size:11px;fill:#606060;width:188px;text-overflow:clip;" text-anchor="end" transform="translate(0,0)" y="56" opacity="1">20</text></g><g class="highcharts-tooltip"  style="cursor:default;padding:0;pointer-events:none;white-space:nowrap;" transform="translate(0,-9999)"><path fill="none" d="M 3.5 0.5 L 13.5 0.5 C 16.5 0.5 16.5 0.5 16.5 3.5 L 16.5 13.5 C 16.5 16.5 16.5 16.5 13.5 16.5 L 3.5 16.5 C 0.5 16.5 0.5 16.5 0.5 13.5 L 0.5 3.5 C 0.5 0.5 0.5 0.5 3.5 0.5"  stroke="black" stroke-opacity="0.049999999999999996" stroke-width="5" transform="translate(1, 1)"></path><path fill="none" d="M 3.5 0.5 L 13.5 0.5 C 16.5 0.5 16.5 0.5 16.5 3.5 L 16.5 13.5 C 16.5 16.5 16.5 16.5 13.5 16.5 L 3.5 16.5 C 0.5 16.5 0.5 16.5 0.5 13.5 L 0.5 3.5 C 0.5 0.5 0.5 0.5 3.5 0.5"  stroke="black" stroke-opacity="0.09999999999999999" stroke-width="3" transform="translate(1, 1)"></path><path fill="none" d="M 3.5 0.5 L 13.5 0.5 C 16.5 0.5 16.5 0.5 16.5 3.5 L 16.5 13.5 C 16.5 16.5 16.5 16.5 13.5 16.5 L 3.5 16.5 C 0.5 16.5 0.5 16.5 0.5 13.5 L 0.5 3.5 C 0.5 0.5 0.5 0.5 3.5 0.5"  stroke="black" stroke-opacity="0.15" stroke-width="1" transform="translate(1, 1)"></path><path fill="rgb(249, 249, 249)" fill-opacity=" .85" d="M 3.5 0.5 L 13.5 0.5 C 16.5 0.5 16.5 0.5 16.5 3.5 L 16.5 13.5 C 16.5 16.5 16.5 16.5 13.5 16.5 L 3.5 16.5 C 0.5 16.5 0.5 16.5 0.5 13.5 L 0.5 3.5 C 0.5 0.5 0.5 0.5 3.5 0.5"></path><text x="8"  style="font-size:12px;color:#333333;fill:#333333;" y="20"></text></g></svg>