<svg xmlns:xlink="http://www.w3.org/1999/xlink" version="1.1" style="font-family:'lucida grande', 'lucida sans unicode', arial, helvetica, sans-serif;font-size:12px;" xmlns="http://www.w3.org/2000/svg" width="600" height="400"><desc>Created with Highstock 4.2.1</desc><defs><clipPath id="highcharts-87"><rect x="0" y="0" width="520" height="205"></rect></clipPath></defs><rect x="0" y="0" width="600" height="400" strokeWidth="0" fill="#FFFFFF" class=" highcharts-background"></rect><path fill="none" d="M 70 258.5 L 590 258.5" stroke="#808050" stroke-width="1"></path><g class="highcharts-grid" ></g><g class="highcharts-grid" ><path fill="none" d="M 70 258.5 L 590 258.5" stroke="#D8D8D8" stroke-width="1"  opacity="1"></path><path fill="none" d="M 70 207.5 L 590 207.5" stroke="#D8D8D8" stroke-width="1"  opacity="1"></path><path fill="none" d="M 70 156.5 L 590 156.5" stroke="#D8D8D8" stroke-width="1"  opacity="1"></path><path fill="none" d="M 70 104.5 L 590 104.5" stroke="#D8D8D8" stroke-width="1"  opacity="1"></path><path fill="none" d="M 70 52.5 L 590 52.5" stroke="#D8D8D8" stroke-width="1"  opacity="1"></path></g><g class="highcharts-axis" ><path fill="none" d="M 77.5 258 L 77.5 268" stroke="#C0D0E0" stroke-width="1" opacity="1"></path><path fill="none" d="M 111.5 258 L 111.5 268" stroke="#C0D0E0" stroke-width="1" opacity="1"></path><path fill="none" d="M 144.5 258 L 144.5 268" stroke="#C0D0E0" stroke-width="1" opacity="1"></path><path fill="none" d="M 178.5 258 L 178.5 268" stroke="#C0D0E0" stroke-width="1" opacity="1"></path><path fill="none" d="M 212.5 258 L 212.5 268" stroke="#C0D0E0" stroke-width="1" opacity="1"></path><path fill="none" d="M 245.5 258 L 245.5 268" stroke="#C0D0E0" stroke-width="1" opacity="1"></path><path fill="none" d="M 279.5 258 L 279.5 268" stroke="#C0D0E0" stroke-width="1" opacity="1"></path><path fill="none" d="M 312.5 258 L 312.5 268" stroke="#C0D0E0" stroke-width="1" opacity="1"></path><path fill="none" d="M 346.5 258 L 346.5 268" stroke="#C0D0E0" stroke-width="1" opacity="1"></path><path fill="none" d="M 379.5 258 L 379.5 268" stroke="#C0D0E0" stroke-width="1" opacity="1"></path><path fill="none" d="M 413.5 258 L 413.5 268" stroke="#C0D0E0" stroke-width="1" opacity="1"></path><path fill="none" d="M 446.5 258 L 446.5 268" stroke="#C0D0E0" stroke-width="1" opacity="1"></path><path fill="none" d="M 480.5 258 L 480.5 268" stroke="#C0D0E0" stroke-width="1" opacity="1"></path><path fill="none" d="M 514.5 258 L 514.5 268" stroke="#C0D0E0" stroke-width="1" opacity="1"></path><path fill="none" d="M 547.5 258 L 547.5 268" stroke="#C0D0E0" stroke-width="1" opacity="1"></path><path fill="none" d="M 581.5 258 L 581.5 268" stroke="#C0D0E0" stroke-width="1" opacity="1"></path><text x="330"  text-anchor="middle" transform="translate(0,0)" class=" highcharts-xaxis-title" style="color:#707070;fill:#707070;" y="337.6019017597487">Dates</text><path fill="none" d="M 70 258.5 L 590 258.5" stroke="#C0D0E0" stroke-width="1" ></path></g><g class="highcharts-axis" ><text x="27.609375"  text-anchor="middle" transform="translate(0,0) rotate(270 27.609375 155.5)" class=" highcharts-yaxis-title" style="color:#707070;fill:#707070;" y="155.5">Ampere</text></g><g class="highcharts-series-group" ><g class="highcharts-series highcharts-series-0"  transform="translate(70,53) scale(1 1)" clip-path="url(#highcharts-87)"><path fill="#f15c80" d="M 8.387096774193548 205 L 25.161290322580644 205 L 41.935483870967744 205 L 58.70967741935483 205 L 75.48387096774194 184.5 L 92.25806451612904 205 L 109.03225806451613 41 L 125.80645161290322 164 L 142.5806451612903 205 L 159.3548387096774 205 L 176.1290322580645 205 L 192.9032258064516 205 L 209.6774193548387 205 L 226.4516129032258 205 L 243.22580645161287 205 L 260 205 L 276.7741935483871 205 L 293.54838709677415 205 L 310.3225806451613 205 L 327.09677419354836 205 L 343.8709677419355 205 L 360.64516129032256 205 L 377.41935483870964 205 L 394.19354838709677 205 L 410.96774193548384 205 L 427.7419354838709 205 L 444.51612903225805 205 L 461.2903225806451 205 L 478.0645161290322 205 L 494.83870967741933 205 L 511.6129032258064 205 L 511.6129032258064 205 L 8.387096774193548 205"  fill-opacity="0.75"></path><path fill="none" d="M 8.387096774193548 205 L 25.161290322580644 205 L 41.935483870967744 205 L 58.70967741935483 205 L 75.48387096774194 184.5 L 92.25806451612904 205 L 109.03225806451613 41 L 125.80645161290322 164 L 142.5806451612903 205 L 159.3548387096774 205 L 176.1290322580645 205 L 192.9032258064516 205 L 209.6774193548387 205 L 226.4516129032258 205 L 243.22580645161287 205 L 260 205 L 276.7741935483871 205 L 293.54838709677415 205 L 310.3225806451613 205 L 327.09677419354836 205 L 343.8709677419355 205 L 360.64516129032256 205 L 377.41935483870964 205 L 394.19354838709677 205 L 410.96774193548384 205 L 427.7419354838709 205 L 444.51612903225805 205 L 461.2903225806451 205 L 478.0645161290322 205 L 494.83870967741933 205 L 511.6129032258064 205" stroke="#f15c80" stroke-width="2"  stroke-linejoin="round" stroke-linecap="round"></path></g><g class="highcharts-markers highcharts-series-0"  transform="translate(70,53) scale(1 1)" clip-path="none"><path fill="#f15c80" d="M 511 201 C 516.328 201 516.328 209 511 209 C 505.672 209 505.672 201 511 201 Z"></path><path fill="#f15c80" d="M 494 201 C 499.328 201 499.328 209 494 209 C 488.672 209 488.672 201 494 201 Z"></path><path fill="#f15c80" d="M 478 201 C 483.328 201 483.328 209 478 209 C 472.672 209 472.672 201 478 201 Z"></path><path fill="#f15c80" d="M 461 201 C 466.328 201 466.328 209 461 209 C 455.672 209 455.672 201 461 201 Z"></path><path fill="#f15c80" d="M 444 201 C 449.328 201 449.328 209 444 209 C 438.672 209 438.672 201 444 201 Z"></path><path fill="#f15c80" d="M 427 201 C 432.328 201 432.328 209 427 209 C 421.672 209 421.672 201 427 201 Z"></path><path fill="#f15c80" d="M 410 201 C 415.328 201 415.328 209 410 209 C 404.672 209 404.672 201 410 201 Z"></path><path fill="#f15c80" d="M 394 201 C 399.328 201 399.328 209 394 209 C 388.672 209 388.672 201 394 201 Z"></path><path fill="#f15c80" d="M 377 201 C 382.328 201 382.328 209 377 209 C 371.672 209 371.672 201 377 201 Z"></path><path fill="#f15c80" d="M 360 201 C 365.328 201 365.328 209 360 209 C 354.672 209 354.672 201 360 201 Z"></path><path fill="#f15c80" d="M 343 201 C 348.328 201 348.328 209 343 209 C 337.672 209 337.672 201 343 201 Z"></path><path fill="#f15c80" d="M 327 201 C 332.328 201 332.328 209 327 209 C 321.672 209 321.672 201 327 201 Z"></path><path fill="#f15c80" d="M 310 201 C 315.328 201 315.328 209 310 209 C 304.672 209 304.672 201 310 201 Z"></path><path fill="#f15c80" d="M 293 201 C 298.328 201 298.328 209 293 209 C 287.672 209 287.672 201 293 201 Z"></path><path fill="#f15c80" d="M 276 201 C 281.328 201 281.328 209 276 209 C 270.672 209 270.672 201 276 201 Z"></path><path fill="#f15c80" d="M 260 201 C 265.328 201 265.328 209 260 209 C 254.672 209 254.672 201 260 201 Z"></path><path fill="#f15c80" d="M 243 201 C 248.328 201 248.328 209 243 209 C 237.672 209 237.672 201 243 201 Z"></path><path fill="#f15c80" d="M 226 201 C 231.328 201 231.328 209 226 209 C 220.672 209 220.672 201 226 201 Z"></path><path fill="#f15c80" d="M 209 201 C 214.328 201 214.328 209 209 209 C 203.672 209 203.672 201 209 201 Z"></path><path fill="#f15c80" d="M 192 201 C 197.328 201 197.328 209 192 209 C 186.672 209 186.672 201 192 201 Z"></path><path fill="#f15c80" d="M 176 201 C 181.328 201 181.328 209 176 209 C 170.672 209 170.672 201 176 201 Z"></path><path fill="#f15c80" d="M 159 201 C 164.328 201 164.328 209 159 209 C 153.672 209 153.672 201 159 201 Z"></path><path fill="#f15c80" d="M 142 201 C 147.328 201 147.328 209 142 209 C 136.672 209 136.672 201 142 201 Z"></path><path fill="#f15c80" d="M 125 160 C 130.328 160 130.328 168 125 168 C 119.672 168 119.672 160 125 160 Z"></path><path fill="#f15c80" d="M 109 37 C 114.328 37 114.328 45 109 45 C 103.672 45 103.672 37 109 37 Z"></path><path fill="#f15c80" d="M 92 201 C 97.328 201 97.328 209 92 209 C 86.672 209 86.672 201 92 201 Z"></path><path fill="#f15c80" d="M 75 180.5 C 80.328 180.5 80.328 188.5 75 188.5 C 69.672 188.5 69.672 180.5 75 180.5 Z"></path><path fill="#f15c80" d="M 58 201 C 63.328 201 63.328 209 58 209 C 52.672 209 52.672 201 58 201 Z"></path><path fill="#f15c80" d="M 41 201 C 46.328 201 46.328 209 41 209 C 35.672 209 35.672 201 41 201 Z"></path><path fill="#f15c80" d="M 25 201 C 30.328 201 30.328 209 25 209 C 19.672 209 19.672 201 25 201 Z"></path><path fill="#f15c80" d="M 8 201 C 13.328 201 13.328 209 8 209 C 2.6719999999999997 209 2.6719999999999997 201 8 201 Z"></path></g></g><text x="280" text-anchor="middle" class="highcharts-title"  style="color:#333333;font-size:18px;fill:#333333;width:536px;" y="24"><tspan>Intensite soutiree entre 1/8/2010 et 31/8/2010</tspan></text><g class="highcharts-legend"  transform="translate(255,356)"><g ><g><g class="highcharts-legend-item"  transform="translate(8,3)"><text x="21" style="color:#333333;font-size:12px;font-weight:bold;cursor:pointer;fill:#333333;" text-anchor="start"  y="15"><tspan>Intensite </tspan></text><rect x="0" y="4" width="16" height="12"  fill="#f15c80"></rect></g></g></g></g><g class="highcharts-axis-labels highcharts-xaxis-labels" ><text x="80.97982163854422" style="color:#606060;cursor:default;font-size:11px;fill:#606060;width:400px;text-overflow:ellipsis;" text-anchor="end" transform="translate(0,0) rotate(-45 80.97982163854422 274)" y="274" opacity="1"><tspan>2010/8/1</tspan></text><text x="114.52820873531842" style="color:#606060;cursor:default;font-size:11px;fill:#606060;width:400px;text-overflow:ellipsis;" text-anchor="end" transform="translate(0,0) rotate(-45 114.52820873531842 274)" y="274" opacity="1"><tspan>2010/8/3</tspan></text><text x="148.07659583209264" style="color:#606060;cursor:default;font-size:11px;fill:#606060;width:400px;text-overflow:ellipsis;" text-anchor="end" transform="translate(0,0) rotate(-45 148.07659583209264 274)" y="274" opacity="1"><tspan>2010/8/5</tspan></text><text x="181.6249829288668" style="color:#606060;cursor:default;font-size:11px;fill:#606060;width:400px;text-overflow:ellipsis;" text-anchor="end" transform="translate(0,0) rotate(-45 181.6249829288668 274)" y="274" opacity="1"><tspan>2010/8/7</tspan></text><text x="215.173370025641" style="color:#606060;cursor:default;font-size:11px;fill:#606060;width:400px;text-overflow:ellipsis;" text-anchor="end" transform="translate(0,0) rotate(-45 215.173370025641 274)" y="274" opacity="1"><tspan>2010/8/9</tspan></text><text x="248.7217571224152" style="color:#606060;cursor:default;font-size:11px;fill:#606060;width:400px;text-overflow:ellipsis;" text-anchor="end" transform="translate(0,0) rotate(-45 248.7217571224152 274)" y="274" opacity="1"><tspan>2010/8/11</tspan></text><text x="282.2701442191893" style="color:#606060;cursor:default;font-size:11px;fill:#606060;width:400px;text-overflow:ellipsis;" text-anchor="end" transform="translate(0,0) rotate(-45 282.2701442191893 274)" y="274" opacity="1"><tspan>2010/8/13</tspan></text><text x="315.8185313159635" style="color:#606060;cursor:default;font-size:11px;fill:#606060;width:400px;text-overflow:ellipsis;" text-anchor="end" transform="translate(0,0) rotate(-45 315.8185313159635 274)" y="274" opacity="1"><tspan>2010/8/15</tspan></text><text x="349.36691841273773" style="color:#606060;cursor:default;font-size:11px;fill:#606060;width:400px;text-overflow:ellipsis;" text-anchor="end" transform="translate(0,0) rotate(-45 349.36691841273773 274)" y="274" opacity="1"><tspan>2010/8/17</tspan></text><text x="382.91530550951194" style="color:#606060;cursor:default;font-size:11px;fill:#606060;width:400px;text-overflow:ellipsis;" text-anchor="end" transform="translate(0,0) rotate(-45 382.91530550951194 274)" y="274" opacity="1"><tspan>2010/8/19</tspan></text><text x="416.46369260628614" style="color:#606060;cursor:default;font-size:11px;fill:#606060;width:400px;text-overflow:ellipsis;" text-anchor="end" transform="translate(0,0) rotate(-45 416.46369260628614 274)" y="274" opacity="1"><tspan>2010/8/21</tspan></text><text x="450.0120797030603" style="color:#606060;cursor:default;font-size:11px;fill:#606060;width:400px;text-overflow:ellipsis;" text-anchor="end" transform="translate(0,0) rotate(-45 450.0120797030603 274)" y="274" opacity="1"><tspan>2010/8/23</tspan></text><text x="483.5604667998345" style="color:#606060;cursor:default;font-size:11px;fill:#606060;width:400px;text-overflow:ellipsis;" text-anchor="end" transform="translate(0,0) rotate(-45 483.5604667998345 274)" y="274" opacity="1"><tspan>2010/8/25</tspan></text><text x="517.1088538966087" style="color:#606060;cursor:default;font-size:11px;fill:#606060;width:400px;text-overflow:ellipsis;" text-anchor="end" transform="translate(0,0) rotate(-45 517.1088538966087 274)" y="274" opacity="1"><tspan>2010/8/27</tspan></text><text x="550.6572409933829" style="color:#606060;cursor:default;font-size:11px;fill:#606060;width:400px;text-overflow:ellipsis;" text-anchor="end" transform="translate(0,0) rotate(-45 550.6572409933829 274)" y="274" opacity="1"><tspan>2010/8/29</tspan></text><text x="584.205628090157" style="color:#606060;cursor:default;font-size:11px;fill:#606060;width:400px;text-overflow:ellipsis;" text-anchor="end" transform="translate(0,0) rotate(-45 584.205628090157 274)" y="274" opacity="1"><tspan>2010/8/31</tspan></text></g><g class="highcharts-axis-labels highcharts-yaxis-labels" ><text x="55" style="color:#606060;cursor:default;font-size:11px;fill:#606060;width:188px;text-overflow:clip;" text-anchor="end" transform="translate(0,0)" y="261" opacity="1">0</text><text x="55" style="color:#606060;cursor:default;font-size:11px;fill:#606060;width:188px;text-overflow:clip;" text-anchor="end" transform="translate(0,0)" y="56" opacity="1">10</text><text x="55" style="color:#606060;cursor:default;font-size:11px;fill:#606060;width:188px;text-overflow:clip;" text-anchor="end" transform="translate(0,0)" y="209" opacity="1">2.5</text><text x="55" style="color:#606060;cursor:default;font-size:11px;fill:#606060;width:188px;text-overflow:clip;" text-anchor="end" transform="translate(0,0)" y="158" opacity="1">5</text><text x="55" style="color:#606060;cursor:default;font-size:11px;fill:#606060;width:188px;text-overflow:clip;" text-anchor="end" transform="translate(0,0)" y="107" opacity="1">7.5</text></g><g class="highcharts-tooltip"  style="cursor:default;padding:0;pointer-events:none;white-space:nowrap;" transform="translate(0,-9999)"><path fill="none" d="M 3.5 0.5 L 13.5 0.5 C 16.5 0.5 16.5 0.5 16.5 3.5 L 16.5 13.5 C 16.5 16.5 16.5 16.5 13.5 16.5 L 3.5 16.5 C 0.5 16.5 0.5 16.5 0.5 13.5 L 0.5 3.5 C 0.5 0.5 0.5 0.5 3.5 0.5"  stroke="black" stroke-opacity="0.049999999999999996" stroke-width="5" transform="translate(1, 1)"></path><path fill="none" d="M 3.5 0.5 L 13.5 0.5 C 16.5 0.5 16.5 0.5 16.5 3.5 L 16.5 13.5 C 16.5 16.5 16.5 16.5 13.5 16.5 L 3.5 16.5 C 0.5 16.5 0.5 16.5 0.5 13.5 L 0.5 3.5 C 0.5 0.5 0.5 0.5 3.5 0.5"  stroke="black" stroke-opacity="0.09999999999999999" stroke-width="3" transform="translate(1, 1)"></path><path fill="none" d="M 3.5 0.5 L 13.5 0.5 C 16.5 0.5 16.5 0.5 16.5 3.5 L 16.5 13.5 C 16.5 16.5 16.5 16.5 13.5 16.5 L 3.5 16.5 C 0.5 16.5 0.5 16.5 0.5 13.5 L 0.5 3.5 C 0.5 0.5 0.5 0.5 3.5 0.5"  stroke="black" stroke-opacity="0.15" stroke-width="1" transform="translate(1, 1)"></path><path fill="rgb(249, 249, 249)" fill-opacity=" .85" d="M 3.5 0.5 L 13.5 0.5 C 16.5 0.5 16.5 0.5 16.5 3.5 L 16.5 13.5 C 16.5 16.5 16.5 16.5 13.5 16.5 L 3.5 16.5 C 0.5 16.5 0.5 16.5 0.5 13.5 L 0.5 3.5 C 0.5 0.5 0.5 0.5 3.5 0.5"></path><text x="8"  style="font-size:12px;color:#333333;fill:#333333;" y="20"></text></g></svg>