<svg xmlns:xlink="http://www.w3.org/1999/xlink" version="1.1" style="font-family:'lucida grande', 'lucida sans unicode', arial, helvetica, sans-serif;font-size:12px;" xmlns="http://www.w3.org/2000/svg" width="600" height="400"><desc>Created with Highstock 4.2.1</desc><defs><clipPath id="highcharts-46"><rect x="0" y="0" width="524" height="205"></rect></clipPath></defs><rect x="0" y="0" width="600" height="400" strokeWidth="0" fill="#FFFFFF" class=" highcharts-background"></rect><path fill="none" d="M 66 258.5 L 590 258.5" stroke="#808050" stroke-width="1"></path><g class="highcharts-grid" ></g><g class="highcharts-grid" ><path fill="none" d="M 66 258.5 L 590 258.5" stroke="#D8D8D8" stroke-width="1"  opacity="1"></path><path fill="none" d="M 66 217.5 L 590 217.5" stroke="#D8D8D8" stroke-width="1"  opacity="1"></path><path fill="none" d="M 66 176.5 L 590 176.5" stroke="#D8D8D8" stroke-width="1"  opacity="1"></path><path fill="none" d="M 66 135.5 L 590 135.5" stroke="#D8D8D8" stroke-width="1"  opacity="1"></path><path fill="none" d="M 66 94.5 L 590 94.5" stroke="#D8D8D8" stroke-width="1"  opacity="1"></path><path fill="none" d="M 66 52.5 L 590 52.5" stroke="#D8D8D8" stroke-width="1"  opacity="1"></path></g><g class="highcharts-axis" ><path fill="none" d="M 96.5 258 L 96.5 268" stroke="#C0D0E0" stroke-width="1" opacity="1"></path><path fill="none" d="M 127.5 258 L 127.5 268" stroke="#C0D0E0" stroke-width="1" opacity="1"></path><path fill="none" d="M 157.5 258 L 157.5 268" stroke="#C0D0E0" stroke-width="1" opacity="1"></path><path fill="none" d="M 188.5 258 L 188.5 268" stroke="#C0D0E0" stroke-width="1" opacity="1"></path><path fill="none" d="M 219.5 258 L 219.5 268" stroke="#C0D0E0" stroke-width="1" opacity="1"></path><path fill="none" d="M 250.5 258 L 250.5 268" stroke="#C0D0E0" stroke-width="1" opacity="1"></path><path fill="none" d="M 281.5 258 L 281.5 268" stroke="#C0D0E0" stroke-width="1" opacity="1"></path><path fill="none" d="M 312.5 258 L 312.5 268" stroke="#C0D0E0" stroke-width="1" opacity="1"></path><path fill="none" d="M 342.5 258 L 342.5 268" stroke="#C0D0E0" stroke-width="1" opacity="1"></path><path fill="none" d="M 373.5 258 L 373.5 268" stroke="#C0D0E0" stroke-width="1" opacity="1"></path><path fill="none" d="M 404.5 258 L 404.5 268" stroke="#C0D0E0" stroke-width="1" opacity="1"></path><path fill="none" d="M 435.5 258 L 435.5 268" stroke="#C0D0E0" stroke-width="1" opacity="1"></path><path fill="none" d="M 466.5 258 L 466.5 268" stroke="#C0D0E0" stroke-width="1" opacity="1"></path><path fill="none" d="M 497.5 258 L 497.5 268" stroke="#C0D0E0" stroke-width="1" opacity="1"></path><path fill="none" d="M 527.5 258 L 527.5 268" stroke="#C0D0E0" stroke-width="1" opacity="1"></path><path fill="none" d="M 558.5 258 L 558.5 268" stroke="#C0D0E0" stroke-width="1" opacity="1"></path><path fill="none" d="M 590.5 258 L 590.5 268" stroke="#C0D0E0" stroke-width="1" opacity="1"></path><path fill="none" d="M 65.5 258 L 65.5 268" stroke="#C0D0E0" stroke-width="1" opacity="1"></path><text x="328"  text-anchor="middle" transform="translate(0,0)" class=" highcharts-xaxis-title" style="color:#707070;fill:#707070;" y="337.6019017597487">Dates</text><path fill="none" d="M 66 258.5 L 590 258.5" stroke="#C0D0E0" stroke-width="1" ></path></g><g class="highcharts-axis" ><text x="27.625"  text-anchor="middle" transform="translate(0,0) rotate(270 27.625 155.5)" class=" highcharts-yaxis-title" style="color:#707070;fill:#707070;" y="155.5">VA</text></g><g class="highcharts-series-group" ><g class="highcharts-series highcharts-series-0"  transform="translate(66,53) scale(1 1)" clip-path="url(#highcharts-46)"><path fill="#8085e9" d="M 15.411764705882353 47.559039062500005 L 46.23529411764706 49.13615771484373 L 77.05882352941177 51.31864697265624 L 107.88235294117646 49.041945800781235 L 138.7058823529412 45.82521752929688 L 169.52941176470588 46.93249780273436 L 200.35294117647058 51.61052172851561 L 231.1764705882353 48.11777416992186 L 262 46.04168872070312 L 292.82352941176475 53.35062939453124 L 323.64705882352945 47.42566894531248 L 354.47058823529414 45.13910815429688 L 385.29411764705884 51.312991455078105 L 416.11764705882354 47.81789160156248 L 446.9411764705883 46.53898388671874 L 477.764705882353 49.87964306640623 L 508.5882352941177 52.025136230468746 L 508.5882352941177 205 L 15.411764705882353 205"  fill-opacity="0.75"></path><path fill="none" d="M 15.411764705882353 47.559039062500005 L 46.23529411764706 49.13615771484373 L 77.05882352941177 51.31864697265624 L 107.88235294117646 49.041945800781235 L 138.7058823529412 45.82521752929688 L 169.52941176470588 46.93249780273436 L 200.35294117647058 51.61052172851561 L 231.1764705882353 48.11777416992186 L 262 46.04168872070312 L 292.82352941176475 53.35062939453124 L 323.64705882352945 47.42566894531248 L 354.47058823529414 45.13910815429688 L 385.29411764705884 51.312991455078105 L 416.11764705882354 47.81789160156248 L 446.9411764705883 46.53898388671874 L 477.764705882353 49.87964306640623 L 508.5882352941177 52.025136230468746" stroke="#8085e9" stroke-width="2"  stroke-linejoin="round" stroke-linecap="round"></path></g><g class="highcharts-markers highcharts-series-0"  transform="translate(66,53) scale(1 1)" clip-path="none"><path fill="#8085e9" d="M 508 48.025136230468746 C 513.328 48.025136230468746 513.328 56.025136230468746 508 56.025136230468746 C 502.672 56.025136230468746 502.672 48.025136230468746 508 48.025136230468746 Z"></path><path fill="#8085e9" d="M 477 45.87964306640623 C 482.328 45.87964306640623 482.328 53.87964306640623 477 53.87964306640623 C 471.672 53.87964306640623 471.672 45.87964306640623 477 45.87964306640623 Z"></path><path fill="#8085e9" d="M 446 42.53898388671874 C 451.328 42.53898388671874 451.328 50.53898388671874 446 50.53898388671874 C 440.672 50.53898388671874 440.672 42.53898388671874 446 42.53898388671874 Z"></path><path fill="#8085e9" d="M 416 43.81789160156248 C 421.328 43.81789160156248 421.328 51.81789160156248 416 51.81789160156248 C 410.672 51.81789160156248 410.672 43.81789160156248 416 43.81789160156248 Z"></path><path fill="#8085e9" d="M 385 47.312991455078105 C 390.328 47.312991455078105 390.328 55.312991455078105 385 55.312991455078105 C 379.672 55.312991455078105 379.672 47.312991455078105 385 47.312991455078105 Z"></path><path fill="#8085e9" d="M 354 41.13910815429688 C 359.328 41.13910815429688 359.328 49.13910815429688 354 49.13910815429688 C 348.672 49.13910815429688 348.672 41.13910815429688 354 41.13910815429688 Z"></path><path fill="#8085e9" d="M 323 43.42566894531248 C 328.328 43.42566894531248 328.328 51.42566894531248 323 51.42566894531248 C 317.672 51.42566894531248 317.672 43.42566894531248 323 43.42566894531248 Z"></path><path fill="#8085e9" d="M 292 49.35062939453124 C 297.328 49.35062939453124 297.328 57.35062939453124 292 57.35062939453124 C 286.672 57.35062939453124 286.672 49.35062939453124 292 49.35062939453124 Z"></path><path fill="#8085e9" d="M 262 42.04168872070312 C 267.328 42.04168872070312 267.328 50.04168872070312 262 50.04168872070312 C 256.672 50.04168872070312 256.672 42.04168872070312 262 42.04168872070312 Z"></path><path fill="#8085e9" d="M 231 44.11777416992186 C 236.328 44.11777416992186 236.328 52.11777416992186 231 52.11777416992186 C 225.672 52.11777416992186 225.672 44.11777416992186 231 44.11777416992186 Z"></path><path fill="#8085e9" d="M 200 47.61052172851561 C 205.328 47.61052172851561 205.328 55.61052172851561 200 55.61052172851561 C 194.672 55.61052172851561 194.672 47.61052172851561 200 47.61052172851561 Z"></path><path fill="#8085e9" d="M 169 42.93249780273436 C 174.328 42.93249780273436 174.328 50.93249780273436 169 50.93249780273436 C 163.672 50.93249780273436 163.672 42.93249780273436 169 42.93249780273436 Z"></path><path fill="#8085e9" d="M 138 41.82521752929688 C 143.328 41.82521752929688 143.328 49.82521752929688 138 49.82521752929688 C 132.672 49.82521752929688 132.672 41.82521752929688 138 41.82521752929688 Z"></path><path fill="#8085e9" d="M 107 45.041945800781235 C 112.328 45.041945800781235 112.328 53.041945800781235 107 53.041945800781235 C 101.672 53.041945800781235 101.672 45.041945800781235 107 45.041945800781235 Z"></path><path fill="#8085e9" d="M 77 47.31864697265624 C 82.328 47.31864697265624 82.328 55.31864697265624 77 55.31864697265624 C 71.672 55.31864697265624 71.672 47.31864697265624 77 47.31864697265624 Z"></path><path fill="#8085e9" d="M 46 45.13615771484373 C 51.328 45.13615771484373 51.328 53.13615771484373 46 53.13615771484373 C 40.672 53.13615771484373 40.672 45.13615771484373 46 45.13615771484373 Z"></path><path fill="#8085e9" d="M 15 43.559039062500005 C 20.328 43.559039062500005 20.328 51.559039062500005 15 51.559039062500005 C 9.672 51.559039062500005 9.672 43.559039062500005 15 43.559039062500005 Z"></path></g></g><text x="280" text-anchor="middle" class="highcharts-title"  style="color:#333333;font-size:18px;fill:#333333;width:536px;" y="24"><tspan>Puissance réactive entre 2/6/2009 et 18/6/2009</tspan></text><g class="highcharts-legend"  transform="translate(227,356)"><g ><g><g class="highcharts-legend-item"  transform="translate(8,3)"><text x="21" style="color:#333333;font-size:12px;font-weight:bold;cursor:pointer;fill:#333333;" text-anchor="start"  y="15"><tspan>Puissance réactive </tspan></text><rect x="0" y="4" width="16" height="12"  fill="#8085e9"></rect></g></g></g></g><g class="highcharts-axis-labels highcharts-xaxis-labels" ><text x="84.00448957023303" style="color:#606060;cursor:default;font-size:11px;fill:#606060;width:400px;text-overflow:ellipsis;" text-anchor="end" transform="translate(0,0) rotate(-45 84.00448957023303 274)" y="274" opacity="1"><tspan>2009/6/2</tspan></text><text x="114.82801898199776" style="color:#606060;cursor:default;font-size:11px;fill:#606060;width:400px;text-overflow:ellipsis;" text-anchor="end" transform="translate(0,0) rotate(-45 114.82801898199776 274)" y="274" opacity="1"><tspan>2009/6/3</tspan></text><text x="145.65154839376245" style="color:#606060;cursor:default;font-size:11px;fill:#606060;width:400px;text-overflow:ellipsis;" text-anchor="end" transform="translate(0,0) rotate(-45 145.65154839376245 274)" y="274" opacity="1"><tspan>2009/6/4</tspan></text><text x="176.47507780552718" style="color:#606060;cursor:default;font-size:11px;fill:#606060;width:400px;text-overflow:ellipsis;" text-anchor="end" transform="translate(0,0) rotate(-45 176.47507780552718 274)" y="274" opacity="1"><tspan>2009/6/5</tspan></text><text x="207.29860721729187" style="color:#606060;cursor:default;font-size:11px;fill:#606060;width:400px;text-overflow:ellipsis;" text-anchor="end" transform="translate(0,0) rotate(-45 207.29860721729187 274)" y="274" opacity="1"><tspan>2009/6/6</tspan></text><text x="238.12213662905657" style="color:#606060;cursor:default;font-size:11px;fill:#606060;width:400px;text-overflow:ellipsis;" text-anchor="end" transform="translate(0,0) rotate(-45 238.12213662905657 274)" y="274" opacity="1"><tspan>2009/6/7</tspan></text><text x="268.9456660408212" style="color:#606060;cursor:default;font-size:11px;fill:#606060;width:400px;text-overflow:ellipsis;" text-anchor="end" transform="translate(0,0) rotate(-45 268.9456660408212 274)" y="274" opacity="1"><tspan>2009/6/8</tspan></text><text x="299.76919545258596" style="color:#606060;cursor:default;font-size:11px;fill:#606060;width:400px;text-overflow:ellipsis;" text-anchor="end" transform="translate(0,0) rotate(-45 299.76919545258596 274)" y="274" opacity="1"><tspan>2009/6/9</tspan></text><text x="330.59272486435066" style="color:#606060;cursor:default;font-size:11px;fill:#606060;width:400px;text-overflow:ellipsis;" text-anchor="end" transform="translate(0,0) rotate(-45 330.59272486435066 274)" y="274" opacity="1"><tspan>2009/6/10</tspan></text><text x="361.41625427611535" style="color:#606060;cursor:default;font-size:11px;fill:#606060;width:400px;text-overflow:ellipsis;" text-anchor="end" transform="translate(0,0) rotate(-45 361.41625427611535 274)" y="274" opacity="1"><tspan>2009/6/11</tspan></text><text x="392.23978368788005" style="color:#606060;cursor:default;font-size:11px;fill:#606060;width:400px;text-overflow:ellipsis;" text-anchor="end" transform="translate(0,0) rotate(-45 392.23978368788005 274)" y="274" opacity="1"><tspan>2009/6/12</tspan></text><text x="423.0633130996448" style="color:#606060;cursor:default;font-size:11px;fill:#606060;width:400px;text-overflow:ellipsis;" text-anchor="end" transform="translate(0,0) rotate(-45 423.0633130996448 274)" y="274" opacity="1"><tspan>2009/6/13</tspan></text><text x="453.8868425114095" style="color:#606060;cursor:default;font-size:11px;fill:#606060;width:400px;text-overflow:ellipsis;" text-anchor="end" transform="translate(0,0) rotate(-45 453.8868425114095 274)" y="274" opacity="1"><tspan>2009/6/14</tspan></text><text x="484.7103719231742" style="color:#606060;cursor:default;font-size:11px;fill:#606060;width:400px;text-overflow:ellipsis;" text-anchor="end" transform="translate(0,0) rotate(-45 484.7103719231742 274)" y="274" opacity="1"><tspan>2009/6/15</tspan></text><text x="515.533901334939" style="color:#606060;cursor:default;font-size:11px;fill:#606060;width:400px;text-overflow:ellipsis;" text-anchor="end" transform="translate(0,0) rotate(-45 515.533901334939 274)" y="274" opacity="1"><tspan>2009/6/16</tspan></text><text x="546.3574307467037" style="color:#606060;cursor:default;font-size:11px;fill:#606060;width:400px;text-overflow:ellipsis;" text-anchor="end" transform="translate(0,0) rotate(-45 546.3574307467037 274)" y="274" opacity="1"><tspan>2009/6/17</tspan></text><text x="577.1809601584683" style="color:#606060;cursor:default;font-size:11px;fill:#606060;width:400px;text-overflow:ellipsis;" text-anchor="end" transform="translate(0,0) rotate(-45 577.1809601584683 274)" y="274" opacity="1"><tspan>2009/6/18</tspan></text></g><g class="highcharts-axis-labels highcharts-yaxis-labels" ><text x="51" style="color:#606060;cursor:default;font-size:11px;fill:#606060;width:188px;text-overflow:clip;" text-anchor="end" transform="translate(0,0)" y="261" opacity="1">0k</text><text x="51" style="color:#606060;cursor:default;font-size:11px;fill:#606060;width:188px;text-overflow:clip;" text-anchor="end" transform="translate(0,0)" y="220" opacity="1">1k</text><text x="51" style="color:#606060;cursor:default;font-size:11px;fill:#606060;width:188px;text-overflow:clip;" text-anchor="end" transform="translate(0,0)" y="179" opacity="1">2k</text><text x="51" style="color:#606060;cursor:default;font-size:11px;fill:#606060;width:188px;text-overflow:clip;" text-anchor="end" transform="translate(0,0)" y="138" opacity="1">3k</text><text x="51" style="color:#606060;cursor:default;font-size:11px;fill:#606060;width:188px;text-overflow:clip;" text-anchor="end" transform="translate(0,0)" y="97" opacity="1">4k</text><text x="51" style="color:#606060;cursor:default;font-size:11px;fill:#606060;width:188px;text-overflow:clip;" text-anchor="end" transform="translate(0,0)" y="56" opacity="1">5k</text></g><g class="highcharts-tooltip"  style="cursor:default;padding:0;pointer-events:none;white-space:nowrap;" transform="translate(0,-9999)"><path fill="none" d="M 3.5 0.5 L 13.5 0.5 C 16.5 0.5 16.5 0.5 16.5 3.5 L 16.5 13.5 C 16.5 16.5 16.5 16.5 13.5 16.5 L 3.5 16.5 C 0.5 16.5 0.5 16.5 0.5 13.5 L 0.5 3.5 C 0.5 0.5 0.5 0.5 3.5 0.5"  stroke="black" stroke-opacity="0.049999999999999996" stroke-width="5" transform="translate(1, 1)"></path><path fill="none" d="M 3.5 0.5 L 13.5 0.5 C 16.5 0.5 16.5 0.5 16.5 3.5 L 16.5 13.5 C 16.5 16.5 16.5 16.5 13.5 16.5 L 3.5 16.5 C 0.5 16.5 0.5 16.5 0.5 13.5 L 0.5 3.5 C 0.5 0.5 0.5 0.5 3.5 0.5"  stroke="black" stroke-opacity="0.09999999999999999" stroke-width="3" transform="translate(1, 1)"></path><path fill="none" d="M 3.5 0.5 L 13.5 0.5 C 16.5 0.5 16.5 0.5 16.5 3.5 L 16.5 13.5 C 16.5 16.5 16.5 16.5 13.5 16.5 L 3.5 16.5 C 0.5 16.5 0.5 16.5 0.5 13.5 L 0.5 3.5 C 0.5 0.5 0.5 0.5 3.5 0.5"  stroke="black" stroke-opacity="0.15" stroke-width="1" transform="translate(1, 1)"></path><path fill="rgb(249, 249, 249)" fill-opacity=" .85" d="M 3.5 0.5 L 13.5 0.5 C 16.5 0.5 16.5 0.5 16.5 3.5 L 16.5 13.5 C 16.5 16.5 16.5 16.5 13.5 16.5 L 3.5 16.5 C 0.5 16.5 0.5 16.5 0.5 13.5 L 0.5 3.5 C 0.5 0.5 0.5 0.5 3.5 0.5"></path><text x="8"  style="font-size:12px;color:#333333;fill:#333333;" y="20"></text></g></svg>