<svg xmlns:xlink="http://www.w3.org/1999/xlink" version="1.1" style="font-family:'lucida grande', 'lucida sans unicode', arial, helvetica, sans-serif;font-size:12px;" xmlns="http://www.w3.org/2000/svg" width="600" height="400"><desc>Created with Highstock 4.2.1</desc><defs><clipPath id="highcharts-73"><rect x="0" y="0" width="509" height="205"></rect></clipPath></defs><rect x="0" y="0" width="600" height="400" strokeWidth="0" fill="#FFFFFF" class=" highcharts-background"></rect><path fill="none" d="M 81 258.5 L 590 258.5" stroke="#808050" stroke-width="1"></path><g class="highcharts-grid" ></g><g class="highcharts-grid" ><path fill="none" d="M 81 258.5 L 590 258.5" stroke="#D8D8D8" stroke-width="1"  opacity="1"></path><path fill="none" d="M 81 217.5 L 590 217.5" stroke="#D8D8D8" stroke-width="1"  opacity="1"></path><path fill="none" d="M 81 176.5 L 590 176.5" stroke="#D8D8D8" stroke-width="1"  opacity="1"></path><path fill="none" d="M 81 135.5 L 590 135.5" stroke="#D8D8D8" stroke-width="1"  opacity="1"></path><path fill="none" d="M 81 94.5 L 590 94.5" stroke="#D8D8D8" stroke-width="1"  opacity="1"></path><path fill="none" d="M 81 52.5 L 590 52.5" stroke="#D8D8D8" stroke-width="1"  opacity="1"></path></g><g class="highcharts-axis" ><path fill="none" d="M 88.5 258 L 88.5 268" stroke="#C0D0E0" stroke-width="1" opacity="1"></path><path fill="none" d="M 121.5 258 L 121.5 268" stroke="#C0D0E0" stroke-width="1" opacity="1"></path><path fill="none" d="M 154.5 258 L 154.5 268" stroke="#C0D0E0" stroke-width="1" opacity="1"></path><path fill="none" d="M 187.5 258 L 187.5 268" stroke="#C0D0E0" stroke-width="1" opacity="1"></path><path fill="none" d="M 220.5 258 L 220.5 268" stroke="#C0D0E0" stroke-width="1" opacity="1"></path><path fill="none" d="M 252.5 258 L 252.5 268" stroke="#C0D0E0" stroke-width="1" opacity="1"></path><path fill="none" d="M 285.5 258 L 285.5 268" stroke="#C0D0E0" stroke-width="1" opacity="1"></path><path fill="none" d="M 318.5 258 L 318.5 268" stroke="#C0D0E0" stroke-width="1" opacity="1"></path><path fill="none" d="M 351.5 258 L 351.5 268" stroke="#C0D0E0" stroke-width="1" opacity="1"></path><path fill="none" d="M 384.5 258 L 384.5 268" stroke="#C0D0E0" stroke-width="1" opacity="1"></path><path fill="none" d="M 417.5 258 L 417.5 268" stroke="#C0D0E0" stroke-width="1" opacity="1"></path><path fill="none" d="M 449.5 258 L 449.5 268" stroke="#C0D0E0" stroke-width="1" opacity="1"></path><path fill="none" d="M 482.5 258 L 482.5 268" stroke="#C0D0E0" stroke-width="1" opacity="1"></path><path fill="none" d="M 515.5 258 L 515.5 268" stroke="#C0D0E0" stroke-width="1" opacity="1"></path><path fill="none" d="M 548.5 258 L 548.5 268" stroke="#C0D0E0" stroke-width="1" opacity="1"></path><path fill="none" d="M 581.5 258 L 581.5 268" stroke="#C0D0E0" stroke-width="1" opacity="1"></path><text x="335.5"  text-anchor="middle" transform="translate(0,0)" class=" highcharts-xaxis-title" style="color:#707070;fill:#707070;" y="337.6019017597487">Dates</text><path fill="none" d="M 81 258.5 L 590 258.5" stroke="#C0D0E0" stroke-width="1" ></path></g><g class="highcharts-axis" ><text x="28.1875"  text-anchor="middle" transform="translate(0,0) rotate(270 28.1875 155.5)" class=" highcharts-yaxis-title" style="color:#707070;fill:#707070;" y="155.5">VA</text></g><g class="highcharts-series-group" ><g class="highcharts-series highcharts-series-0"  transform="translate(81,53) scale(1 1)" clip-path="url(#highcharts-73)"><path fill="none" d="M 8.209677419354838 205 L 24.629032258064512 205 L 41.04838709677419 205 L 57.467741935483865 205 L 73.88709677419354 205 L 90.30645161290322 205 L 106.72580645161288 45.756 L 123.14516129032256 156.128 L 139.56451612903226 205 L 155.98387096774192 205 L 172.40322580645162 205 L 188.82258064516128 205 L 205.24193548387095 205 L 221.66129032258064 205 L 238.0806451612903 205 L 254.5 205 L 270.91935483870964 205 L 287.33870967741933 205 L 303.75806451612897 205 L 320.17741935483866 205 L 336.59677419354836 205 L 353.016129032258 205 L 369.4354838709677 205 L 385.8548387096774 205 L 402.274193548387 205 L 418.6935483870967 205 L 435.1129032258064 205 L 451.5322580645161 205 L 467.95161290322574 205 L 484.37096774193543 205 L 500.7903225806451 205" stroke="#f7a35c" stroke-width="2"  stroke-linejoin="round" stroke-linecap="round"></path></g><g class="highcharts-markers highcharts-series-0"  transform="translate(81,53) scale(1 1)" clip-path="none"><path fill="#f7a35c" d="M 500 201 C 505.328 201 505.328 209 500 209 C 494.672 209 494.672 201 500 201 Z"></path><path fill="#f7a35c" d="M 484 201 C 489.328 201 489.328 209 484 209 C 478.672 209 478.672 201 484 201 Z"></path><path fill="#f7a35c" d="M 467 201 C 472.328 201 472.328 209 467 209 C 461.672 209 461.672 201 467 201 Z"></path><path fill="#f7a35c" d="M 451 201 C 456.328 201 456.328 209 451 209 C 445.672 209 445.672 201 451 201 Z"></path><path fill="#f7a35c" d="M 435 201 C 440.328 201 440.328 209 435 209 C 429.672 209 429.672 201 435 201 Z"></path><path fill="#f7a35c" d="M 418 201 C 423.328 201 423.328 209 418 209 C 412.672 209 412.672 201 418 201 Z"></path><path fill="#f7a35c" d="M 402 201 C 407.328 201 407.328 209 402 209 C 396.672 209 396.672 201 402 201 Z"></path><path fill="#f7a35c" d="M 385 201 C 390.328 201 390.328 209 385 209 C 379.672 209 379.672 201 385 201 Z"></path><path fill="#f7a35c" d="M 369 201 C 374.328 201 374.328 209 369 209 C 363.672 209 363.672 201 369 201 Z"></path><path fill="#f7a35c" d="M 353 201 C 358.328 201 358.328 209 353 209 C 347.672 209 347.672 201 353 201 Z"></path><path fill="#f7a35c" d="M 336 201 C 341.328 201 341.328 209 336 209 C 330.672 209 330.672 201 336 201 Z"></path><path fill="#f7a35c" d="M 320 201 C 325.328 201 325.328 209 320 209 C 314.672 209 314.672 201 320 201 Z"></path><path fill="#f7a35c" d="M 303 201 C 308.328 201 308.328 209 303 209 C 297.672 209 297.672 201 303 201 Z"></path><path fill="#f7a35c" d="M 287 201 C 292.328 201 292.328 209 287 209 C 281.672 209 281.672 201 287 201 Z"></path><path fill="#f7a35c" d="M 270 201 C 275.328 201 275.328 209 270 209 C 264.672 209 264.672 201 270 201 Z"></path><path fill="#f7a35c" d="M 254 201 C 259.328 201 259.328 209 254 209 C 248.672 209 248.672 201 254 201 Z"></path><path fill="#f7a35c" d="M 238 201 C 243.328 201 243.328 209 238 209 C 232.672 209 232.672 201 238 201 Z"></path><path fill="#f7a35c" d="M 221 201 C 226.328 201 226.328 209 221 209 C 215.672 209 215.672 201 221 201 Z"></path><path fill="#f7a35c" d="M 205 201 C 210.328 201 210.328 209 205 209 C 199.672 209 199.672 201 205 201 Z"></path><path fill="#f7a35c" d="M 188 201 C 193.328 201 193.328 209 188 209 C 182.672 209 182.672 201 188 201 Z"></path><path fill="#f7a35c" d="M 172 201 C 177.328 201 177.328 209 172 209 C 166.672 209 166.672 201 172 201 Z"></path><path fill="#f7a35c" d="M 155 201 C 160.328 201 160.328 209 155 209 C 149.672 209 149.672 201 155 201 Z"></path><path fill="#f7a35c" d="M 139 201 C 144.328 201 144.328 209 139 209 C 133.672 209 133.672 201 139 201 Z"></path><path fill="#f7a35c" d="M 123 152.128 C 128.328 152.128 128.328 160.128 123 160.128 C 117.672 160.128 117.672 152.128 123 152.128 Z"></path><path fill="#f7a35c" d="M 106 41.756 C 111.328 41.756 111.328 49.756 106 49.756 C 100.672 49.756 100.672 41.756 106 41.756 Z"></path><path fill="#f7a35c" d="M 90 201 C 95.328 201 95.328 209 90 209 C 84.672 209 84.672 201 90 201 Z"></path><path fill="#f7a35c" d="M 73 201 C 78.328 201 78.328 209 73 209 C 67.672 209 67.672 201 73 201 Z"></path><path fill="#f7a35c" d="M 57 201 C 62.328 201 62.328 209 57 209 C 51.672 209 51.672 201 57 201 Z"></path><path fill="#f7a35c" d="M 41 201 C 46.328 201 46.328 209 41 209 C 35.672 209 35.672 201 41 201 Z"></path><path fill="#f7a35c" d="M 24 201 C 29.328 201 29.328 209 24 209 C 18.672 209 18.672 201 24 201 Z"></path><path fill="#f7a35c" d="M 8 201 C 13.328 201 13.328 209 8 209 C 2.6719999999999997 209 2.6719999999999997 201 8 201 Z"></path></g></g><text x="280" text-anchor="middle" class="highcharts-title"  style="color:#333333;font-size:18px;fill:#333333;width:536px;" y="24"><tspan>Puissance apparente entre 1/8/2010 et 31/8/2010</tspan></text><path fill="none" d="M 81 217 L 590 217" stroke="#434348" stroke-width="2" ></path><text x="600" text-anchor="end"  transform="translate(0,0)" style="color:gray;fill:gray;" y="213" visibility="visible">Max</text><g class="highcharts-legend"  transform="translate(220,356)"><g ><g><g class="highcharts-legend-item"  transform="translate(8,3)"><path fill="none" d="M 0 11 L 16 11" stroke="#f7a35c" stroke-width="2"></path><path fill="#f7a35c" d="M 8 7 C 13.328 7 13.328 15 8 15 C 2.6719999999999997 15 2.6719999999999997 7 8 7 Z"></path><text x="21" style="color:#333333;font-size:12px;font-weight:bold;cursor:pointer;fill:#333333;" text-anchor="start"  y="15"><tspan>Puissance apparente </tspan></text></g></g></g></g><g class="highcharts-axis-labels highcharts-xaxis-labels" ><text x="91.8024022837055" style="color:#606060;cursor:default;font-size:11px;fill:#606060;width:400px;text-overflow:ellipsis;" text-anchor="end" transform="translate(0,0) rotate(-45 91.8024022837055 274)" y="274" opacity="1"><tspan>2010/8/1</tspan></text><text x="124.64111196112486" style="color:#606060;cursor:default;font-size:11px;fill:#606060;width:400px;text-overflow:ellipsis;" text-anchor="end" transform="translate(0,0) rotate(-45 124.64111196112486 274)" y="274" opacity="1"><tspan>2010/8/3</tspan></text><text x="157.47982163854422" style="color:#606060;cursor:default;font-size:11px;fill:#606060;width:400px;text-overflow:ellipsis;" text-anchor="end" transform="translate(0,0) rotate(-45 157.47982163854422 274)" y="274" opacity="1"><tspan>2010/8/5</tspan></text><text x="190.31853131596355" style="color:#606060;cursor:default;font-size:11px;fill:#606060;width:400px;text-overflow:ellipsis;" text-anchor="end" transform="translate(0,0) rotate(-45 190.31853131596355 274)" y="274" opacity="1"><tspan>2010/8/7</tspan></text><text x="223.15724099338294" style="color:#606060;cursor:default;font-size:11px;fill:#606060;width:400px;text-overflow:ellipsis;" text-anchor="end" transform="translate(0,0) rotate(-45 223.15724099338294 274)" y="274" opacity="1"><tspan>2010/8/9</tspan></text><text x="255.9959506708023" style="color:#606060;cursor:default;font-size:11px;fill:#606060;width:400px;text-overflow:ellipsis;" text-anchor="end" transform="translate(0,0) rotate(-45 255.9959506708023 274)" y="274" opacity="1"><tspan>2010/8/11</tspan></text><text x="288.83466034822163" style="color:#606060;cursor:default;font-size:11px;fill:#606060;width:400px;text-overflow:ellipsis;" text-anchor="end" transform="translate(0,0) rotate(-45 288.83466034822163 274)" y="274" opacity="1"><tspan>2010/8/13</tspan></text><text x="321.67337002564096" style="color:#606060;cursor:default;font-size:11px;fill:#606060;width:400px;text-overflow:ellipsis;" text-anchor="end" transform="translate(0,0) rotate(-45 321.67337002564096 274)" y="274" opacity="1"><tspan>2010/8/15</tspan></text><text x="354.5120797030603" style="color:#606060;cursor:default;font-size:11px;fill:#606060;width:400px;text-overflow:ellipsis;" text-anchor="end" transform="translate(0,0) rotate(-45 354.5120797030603 274)" y="274" opacity="1"><tspan>2010/8/17</tspan></text><text x="387.3507893804796" style="color:#606060;cursor:default;font-size:11px;fill:#606060;width:400px;text-overflow:ellipsis;" text-anchor="end" transform="translate(0,0) rotate(-45 387.3507893804796 274)" y="274" opacity="1"><tspan>2010/8/19</tspan></text><text x="420.189499057899" style="color:#606060;cursor:default;font-size:11px;fill:#606060;width:400px;text-overflow:ellipsis;" text-anchor="end" transform="translate(0,0) rotate(-45 420.189499057899 274)" y="274" opacity="1"><tspan>2010/8/21</tspan></text><text x="453.02820873531834" style="color:#606060;cursor:default;font-size:11px;fill:#606060;width:400px;text-overflow:ellipsis;" text-anchor="end" transform="translate(0,0) rotate(-45 453.02820873531834 274)" y="274" opacity="1"><tspan>2010/8/23</tspan></text><text x="485.8669184127377" style="color:#606060;cursor:default;font-size:11px;fill:#606060;width:400px;text-overflow:ellipsis;" text-anchor="end" transform="translate(0,0) rotate(-45 485.8669184127377 274)" y="274" opacity="1"><tspan>2010/8/25</tspan></text><text x="518.705628090157" style="color:#606060;cursor:default;font-size:11px;fill:#606060;width:400px;text-overflow:ellipsis;" text-anchor="end" transform="translate(0,0) rotate(-45 518.705628090157 274)" y="274" opacity="1"><tspan>2010/8/27</tspan></text><text x="551.5443377675764" style="color:#606060;cursor:default;font-size:11px;fill:#606060;width:400px;text-overflow:ellipsis;" text-anchor="end" transform="translate(0,0) rotate(-45 551.5443377675764 274)" y="274" opacity="1"><tspan>2010/8/29</tspan></text><text x="584.3830474449958" style="color:#606060;cursor:default;font-size:11px;fill:#606060;width:400px;text-overflow:ellipsis;" text-anchor="end" transform="translate(0,0) rotate(-45 584.3830474449958 274)" y="274" opacity="1"><tspan>2010/8/31</tspan></text></g><g class="highcharts-axis-labels highcharts-yaxis-labels" ><text x="66" style="color:#606060;cursor:default;font-size:11px;fill:#606060;width:188px;text-overflow:clip;" text-anchor="end" transform="translate(0,0)" y="261" opacity="1">0</text><text x="66" style="color:#606060;cursor:default;font-size:11px;fill:#606060;width:188px;text-overflow:clip;" text-anchor="end" transform="translate(0,0)" y="220" opacity="1">500</text><text x="66" style="color:#606060;cursor:default;font-size:11px;fill:#606060;width:188px;text-overflow:clip;" text-anchor="end" transform="translate(0,0)" y="179" opacity="1">1000</text><text x="66" style="color:#606060;cursor:default;font-size:11px;fill:#606060;width:188px;text-overflow:clip;" text-anchor="end" transform="translate(0,0)" y="138" opacity="1">1500</text><text x="66" style="color:#606060;cursor:default;font-size:11px;fill:#606060;width:188px;text-overflow:clip;" text-anchor="end" transform="translate(0,0)" y="97" opacity="1">2000</text><text x="66" style="color:#606060;cursor:default;font-size:11px;fill:#606060;width:188px;text-overflow:clip;" text-anchor="end" transform="translate(0,0)" y="56" opacity="1">2500</text></g><g class="highcharts-tooltip"  style="cursor:default;padding:0;pointer-events:none;white-space:nowrap;" transform="translate(0,-9999)"><path fill="none" d="M 3.5 0.5 L 13.5 0.5 C 16.5 0.5 16.5 0.5 16.5 3.5 L 16.5 13.5 C 16.5 16.5 16.5 16.5 13.5 16.5 L 3.5 16.5 C 0.5 16.5 0.5 16.5 0.5 13.5 L 0.5 3.5 C 0.5 0.5 0.5 0.5 3.5 0.5"  stroke="black" stroke-opacity="0.049999999999999996" stroke-width="5" transform="translate(1, 1)"></path><path fill="none" d="M 3.5 0.5 L 13.5 0.5 C 16.5 0.5 16.5 0.5 16.5 3.5 L 16.5 13.5 C 16.5 16.5 16.5 16.5 13.5 16.5 L 3.5 16.5 C 0.5 16.5 0.5 16.5 0.5 13.5 L 0.5 3.5 C 0.5 0.5 0.5 0.5 3.5 0.5"  stroke="black" stroke-opacity="0.09999999999999999" stroke-width="3" transform="translate(1, 1)"></path><path fill="none" d="M 3.5 0.5 L 13.5 0.5 C 16.5 0.5 16.5 0.5 16.5 3.5 L 16.5 13.5 C 16.5 16.5 16.5 16.5 13.5 16.5 L 3.5 16.5 C 0.5 16.5 0.5 16.5 0.5 13.5 L 0.5 3.5 C 0.5 0.5 0.5 0.5 3.5 0.5"  stroke="black" stroke-opacity="0.15" stroke-width="1" transform="translate(1, 1)"></path><path fill="rgb(249, 249, 249)" fill-opacity=" .85" d="M 3.5 0.5 L 13.5 0.5 C 16.5 0.5 16.5 0.5 16.5 3.5 L 16.5 13.5 C 16.5 16.5 16.5 16.5 13.5 16.5 L 3.5 16.5 C 0.5 16.5 0.5 16.5 0.5 13.5 L 0.5 3.5 C 0.5 0.5 0.5 0.5 3.5 0.5"></path><text x="8"  style="font-size:12px;color:#333333;fill:#333333;" y="20"></text></g></svg>