<svg xmlns:xlink="http://www.w3.org/1999/xlink" version="1.1" style="font-family:'lucida grande', 'lucida sans unicode', arial, helvetica, sans-serif;font-size:12px;" xmlns="http://www.w3.org/2000/svg" width="600" height="400"><desc>Created with Highstock 4.2.1</desc><defs><clipPath id="highcharts-39"><rect x="0" y="0" width="509" height="205"></rect></clipPath></defs><rect x="0" y="0" width="600" height="400" strokeWidth="0" fill="#FFFFFF" class=" highcharts-background"></rect><g class="highcharts-grid" ></g><g class="highcharts-grid" ><path fill="none" d="M 81 258.5 L 590 258.5" stroke="#D8D8D8" stroke-width="1"  opacity="1"></path><path fill="none" d="M 81 190.5 L 590 190.5" stroke="#D8D8D8" stroke-width="1"  opacity="1"></path><path fill="none" d="M 81 121.5 L 590 121.5" stroke="#D8D8D8" stroke-width="1"  opacity="1"></path><path fill="none" d="M 81 52.5 L 590 52.5" stroke="#D8D8D8" stroke-width="1"  opacity="1"></path></g><g class="highcharts-axis" ><path fill="none" d="M 110.5 258 L 110.5 268" stroke="#C0D0E0" stroke-width="1" opacity="1"></path><path fill="none" d="M 140.5 258 L 140.5 268" stroke="#C0D0E0" stroke-width="1" opacity="1"></path><path fill="none" d="M 170.5 258 L 170.5 268" stroke="#C0D0E0" stroke-width="1" opacity="1"></path><path fill="none" d="M 200.5 258 L 200.5 268" stroke="#C0D0E0" stroke-width="1" opacity="1"></path><path fill="none" d="M 230.5 258 L 230.5 268" stroke="#C0D0E0" stroke-width="1" opacity="1"></path><path fill="none" d="M 260.5 258 L 260.5 268" stroke="#C0D0E0" stroke-width="1" opacity="1"></path><path fill="none" d="M 290.5 258 L 290.5 268" stroke="#C0D0E0" stroke-width="1" opacity="1"></path><path fill="none" d="M 320.5 258 L 320.5 268" stroke="#C0D0E0" stroke-width="1" opacity="1"></path><path fill="none" d="M 349.5 258 L 349.5 268" stroke="#C0D0E0" stroke-width="1" opacity="1"></path><path fill="none" d="M 379.5 258 L 379.5 268" stroke="#C0D0E0" stroke-width="1" opacity="1"></path><path fill="none" d="M 409.5 258 L 409.5 268" stroke="#C0D0E0" stroke-width="1" opacity="1"></path><path fill="none" d="M 439.5 258 L 439.5 268" stroke="#C0D0E0" stroke-width="1" opacity="1"></path><path fill="none" d="M 469.5 258 L 469.5 268" stroke="#C0D0E0" stroke-width="1" opacity="1"></path><path fill="none" d="M 499.5 258 L 499.5 268" stroke="#C0D0E0" stroke-width="1" opacity="1"></path><path fill="none" d="M 529.5 258 L 529.5 268" stroke="#C0D0E0" stroke-width="1" opacity="1"></path><path fill="none" d="M 559.5 258 L 559.5 268" stroke="#C0D0E0" stroke-width="1" opacity="1"></path><path fill="none" d="M 590.5 258 L 590.5 268" stroke="#C0D0E0" stroke-width="1" opacity="1"></path><path fill="none" d="M 80.5 258 L 80.5 268" stroke="#C0D0E0" stroke-width="1" opacity="1"></path><text x="335.5"  text-anchor="middle" transform="translate(0,0)" class=" highcharts-xaxis-title" style="color:#707070;fill:#707070;" y="337.6019017597487">Dates</text><path fill="none" d="M 81 258.5 L 590 258.5" stroke="#C0D0E0" stroke-width="1" ></path></g><g class="highcharts-axis" ><text x="28.1875"  text-anchor="middle" transform="translate(0,0) rotate(270 28.1875 155.5)" class=" highcharts-yaxis-title" style="color:#707070;fill:#707070;" y="155.5">VA</text></g><g class="highcharts-series-group" ><g class="highcharts-series highcharts-series-0"  transform="translate(81,53) scale(1 1)" clip-path="url(#highcharts-39)"><path fill="none" d="M 14.970588235294118 87.46666666666667 L 44.911764705882355 142.13333333333333 L 74.8529411764706 168.1 L 104.79411764705883 144.86666666666667 L 134.73529411764707 56.03333333333333 L 164.6764705882353 101.13333333333333 L 194.61764705882354 92.93333333333334 L 224.55882352941177 109.33333333333333 L 254.5 42.366666666666674 L 284.4411764705883 164 L 314.3823529411765 91.56666666666666 L 344.32352941176475 46.46666666666667 L 374.264705882353 185.86666666666667 L 404.2058823529412 49.19999999999999 L 434.14705882352945 64.23333333333332 L 464.0882352941177 154.43333333333334 L 494.0294117647059 176.3" stroke="#f7a35c" stroke-width="2"  stroke-linejoin="round" stroke-linecap="round"></path></g><g class="highcharts-markers highcharts-series-0"  transform="translate(81,53) scale(1 1)" clip-path="none"><path fill="#f7a35c" d="M 494 172.3 C 499.328 172.3 499.328 180.3 494 180.3 C 488.672 180.3 488.672 172.3 494 172.3 Z"></path><path fill="#f7a35c" d="M 464 150.43333333333334 C 469.328 150.43333333333334 469.328 158.43333333333334 464 158.43333333333334 C 458.672 158.43333333333334 458.672 150.43333333333334 464 150.43333333333334 Z"></path><path fill="#f7a35c" d="M 434 60.23333333333332 C 439.328 60.23333333333332 439.328 68.23333333333332 434 68.23333333333332 C 428.672 68.23333333333332 428.672 60.23333333333332 434 60.23333333333332 Z"></path><path fill="#f7a35c" d="M 404 45.19999999999999 C 409.328 45.19999999999999 409.328 53.19999999999999 404 53.19999999999999 C 398.672 53.19999999999999 398.672 45.19999999999999 404 45.19999999999999 Z"></path><path fill="#f7a35c" d="M 374 181.86666666666667 C 379.328 181.86666666666667 379.328 189.86666666666667 374 189.86666666666667 C 368.672 189.86666666666667 368.672 181.86666666666667 374 181.86666666666667 Z"></path><path fill="#f7a35c" d="M 344 42.46666666666667 C 349.328 42.46666666666667 349.328 50.46666666666667 344 50.46666666666667 C 338.672 50.46666666666667 338.672 42.46666666666667 344 42.46666666666667 Z"></path><path fill="#f7a35c" d="M 314 87.56666666666666 C 319.328 87.56666666666666 319.328 95.56666666666666 314 95.56666666666666 C 308.672 95.56666666666666 308.672 87.56666666666666 314 87.56666666666666 Z"></path><path fill="#f7a35c" d="M 284 160 C 289.328 160 289.328 168 284 168 C 278.672 168 278.672 160 284 160 Z"></path><path fill="#f7a35c" d="M 254 38.366666666666674 C 259.328 38.366666666666674 259.328 46.366666666666674 254 46.366666666666674 C 248.672 46.366666666666674 248.672 38.366666666666674 254 38.366666666666674 Z"></path><path fill="#f7a35c" d="M 224 105.33333333333333 C 229.328 105.33333333333333 229.328 113.33333333333333 224 113.33333333333333 C 218.672 113.33333333333333 218.672 105.33333333333333 224 105.33333333333333 Z"></path><path fill="#f7a35c" d="M 194 88.93333333333334 C 199.328 88.93333333333334 199.328 96.93333333333334 194 96.93333333333334 C 188.672 96.93333333333334 188.672 88.93333333333334 194 88.93333333333334 Z"></path><path fill="#f7a35c" d="M 164 97.13333333333333 C 169.328 97.13333333333333 169.328 105.13333333333333 164 105.13333333333333 C 158.672 105.13333333333333 158.672 97.13333333333333 164 97.13333333333333 Z"></path><path fill="#f7a35c" d="M 134 52.03333333333333 C 139.328 52.03333333333333 139.328 60.03333333333333 134 60.03333333333333 C 128.672 60.03333333333333 128.672 52.03333333333333 134 52.03333333333333 Z"></path><path fill="#f7a35c" d="M 104 140.86666666666667 C 109.328 140.86666666666667 109.328 148.86666666666667 104 148.86666666666667 C 98.672 148.86666666666667 98.672 140.86666666666667 104 140.86666666666667 Z"></path><path fill="#f7a35c" d="M 74 164.1 C 79.328 164.1 79.328 172.1 74 172.1 C 68.672 172.1 68.672 164.1 74 164.1 Z"></path><path fill="#f7a35c" d="M 44 138.13333333333333 C 49.328 138.13333333333333 49.328 146.13333333333333 44 146.13333333333333 C 38.672 146.13333333333333 38.672 138.13333333333333 44 138.13333333333333 Z"></path><path fill="#f7a35c" d="M 14 83.46666666666667 C 19.328 83.46666666666667 19.328 91.46666666666667 14 91.46666666666667 C 8.672 91.46666666666667 8.672 83.46666666666667 14 83.46666666666667 Z"></path></g></g><text x="280" text-anchor="middle" class="highcharts-title"  style="color:#333333;font-size:18px;fill:#333333;width:536px;" y="24"><tspan>Puissance apparente entre 2/6/2009 et 18/6/2009</tspan></text><g class="highcharts-legend"  transform="translate(220,356)"><g ><g><g class="highcharts-legend-item"  transform="translate(8,3)"><path fill="none" d="M 0 11 L 16 11" stroke="#f7a35c" stroke-width="2"></path><path fill="#f7a35c" d="M 8 7 C 13.328 7 13.328 15 8 15 C 2.6719999999999997 15 2.6719999999999997 7 8 7 Z"></path><text x="21" style="color:#333333;font-size:12px;font-weight:bold;cursor:pointer;fill:#333333;" text-anchor="start"  y="15"><tspan>Puissance apparente </tspan></text></g></g></g></g><g class="highcharts-axis-labels highcharts-xaxis-labels" ><text x="98.56331309964479" style="color:#606060;cursor:default;font-size:11px;fill:#606060;width:400px;text-overflow:ellipsis;" text-anchor="end" transform="translate(0,0) rotate(-45 98.56331309964479 274)" y="274" opacity="1"><tspan>2009/6/2</tspan></text><text x="128.50448957023303" style="color:#606060;cursor:default;font-size:11px;fill:#606060;width:400px;text-overflow:ellipsis;" text-anchor="end" transform="translate(0,0) rotate(-45 128.50448957023303 274)" y="274" opacity="1"><tspan>2009/6/3</tspan></text><text x="158.44566604082127" style="color:#606060;cursor:default;font-size:11px;fill:#606060;width:400px;text-overflow:ellipsis;" text-anchor="end" transform="translate(0,0) rotate(-45 158.44566604082127 274)" y="274" opacity="1"><tspan>2009/6/4</tspan></text><text x="188.3868425114095" style="color:#606060;cursor:default;font-size:11px;fill:#606060;width:400px;text-overflow:ellipsis;" text-anchor="end" transform="translate(0,0) rotate(-45 188.3868425114095 274)" y="274" opacity="1"><tspan>2009/6/5</tspan></text><text x="218.32801898199776" style="color:#606060;cursor:default;font-size:11px;fill:#606060;width:400px;text-overflow:ellipsis;" text-anchor="end" transform="translate(0,0) rotate(-45 218.32801898199776 274)" y="274" opacity="1"><tspan>2009/6/6</tspan></text><text x="248.26919545258593" style="color:#606060;cursor:default;font-size:11px;fill:#606060;width:400px;text-overflow:ellipsis;" text-anchor="end" transform="translate(0,0) rotate(-45 248.26919545258593 274)" y="274" opacity="1"><tspan>2009/6/7</tspan></text><text x="278.2103719231742" style="color:#606060;cursor:default;font-size:11px;fill:#606060;width:400px;text-overflow:ellipsis;" text-anchor="end" transform="translate(0,0) rotate(-45 278.2103719231742 274)" y="274" opacity="1"><tspan>2009/6/8</tspan></text><text x="308.15154839376237" style="color:#606060;cursor:default;font-size:11px;fill:#606060;width:400px;text-overflow:ellipsis;" text-anchor="end" transform="translate(0,0) rotate(-45 308.15154839376237 274)" y="274" opacity="1"><tspan>2009/6/9</tspan></text><text x="338.09272486435066" style="color:#606060;cursor:default;font-size:11px;fill:#606060;width:400px;text-overflow:ellipsis;" text-anchor="end" transform="translate(0,0) rotate(-45 338.09272486435066 274)" y="274" opacity="1"><tspan>2009/6/10</tspan></text><text x="368.0339013349389" style="color:#606060;cursor:default;font-size:11px;fill:#606060;width:400px;text-overflow:ellipsis;" text-anchor="end" transform="translate(0,0) rotate(-45 368.0339013349389 274)" y="274" opacity="1"><tspan>2009/6/11</tspan></text><text x="397.9750778055271" style="color:#606060;cursor:default;font-size:11px;fill:#606060;width:400px;text-overflow:ellipsis;" text-anchor="end" transform="translate(0,0) rotate(-45 397.9750778055271 274)" y="274" opacity="1"><tspan>2009/6/12</tspan></text><text x="427.91625427611535" style="color:#606060;cursor:default;font-size:11px;fill:#606060;width:400px;text-overflow:ellipsis;" text-anchor="end" transform="translate(0,0) rotate(-45 427.91625427611535 274)" y="274" opacity="1"><tspan>2009/6/13</tspan></text><text x="457.8574307467036" style="color:#606060;cursor:default;font-size:11px;fill:#606060;width:400px;text-overflow:ellipsis;" text-anchor="end" transform="translate(0,0) rotate(-45 457.8574307467036 274)" y="274" opacity="1"><tspan>2009/6/14</tspan></text><text x="487.7986072172918" style="color:#606060;cursor:default;font-size:11px;fill:#606060;width:400px;text-overflow:ellipsis;" text-anchor="end" transform="translate(0,0) rotate(-45 487.7986072172918 274)" y="274" opacity="1"><tspan>2009/6/15</tspan></text><text x="517.73978368788" style="color:#606060;cursor:default;font-size:11px;fill:#606060;width:400px;text-overflow:ellipsis;" text-anchor="end" transform="translate(0,0) rotate(-45 517.73978368788 274)" y="274" opacity="1"><tspan>2009/6/16</tspan></text><text x="547.6809601584682" style="color:#606060;cursor:default;font-size:11px;fill:#606060;width:400px;text-overflow:ellipsis;" text-anchor="end" transform="translate(0,0) rotate(-45 547.6809601584682 274)" y="274" opacity="1"><tspan>2009/6/17</tspan></text><text x="577.6221366290565" style="color:#606060;cursor:default;font-size:11px;fill:#606060;width:400px;text-overflow:ellipsis;" text-anchor="end" transform="translate(0,0) rotate(-45 577.6221366290565 274)" y="274" opacity="1"><tspan>2009/6/18</tspan></text></g><g class="highcharts-axis-labels highcharts-yaxis-labels" ><text x="66" style="color:#606060;cursor:default;font-size:11px;fill:#606060;width:188px;text-overflow:clip;" text-anchor="end" transform="translate(0,0)" y="261" opacity="1">3800</text><text x="66" style="color:#606060;cursor:default;font-size:11px;fill:#606060;width:188px;text-overflow:clip;" text-anchor="end" transform="translate(0,0)" y="192" opacity="1">3850</text><text x="66" style="color:#606060;cursor:default;font-size:11px;fill:#606060;width:188px;text-overflow:clip;" text-anchor="end" transform="translate(0,0)" y="124" opacity="1">3900</text><text x="66" style="color:#606060;cursor:default;font-size:11px;fill:#606060;width:188px;text-overflow:clip;" text-anchor="end" transform="translate(0,0)" y="56" opacity="1">3950</text></g><g class="highcharts-tooltip"  style="cursor:default;padding:0;pointer-events:none;white-space:nowrap;" transform="translate(0,-9999)"><path fill="none" d="M 3.5 0.5 L 13.5 0.5 C 16.5 0.5 16.5 0.5 16.5 3.5 L 16.5 13.5 C 16.5 16.5 16.5 16.5 13.5 16.5 L 3.5 16.5 C 0.5 16.5 0.5 16.5 0.5 13.5 L 0.5 3.5 C 0.5 0.5 0.5 0.5 3.5 0.5"  stroke="black" stroke-opacity="0.049999999999999996" stroke-width="5" transform="translate(1, 1)"></path><path fill="none" d="M 3.5 0.5 L 13.5 0.5 C 16.5 0.5 16.5 0.5 16.5 3.5 L 16.5 13.5 C 16.5 16.5 16.5 16.5 13.5 16.5 L 3.5 16.5 C 0.5 16.5 0.5 16.5 0.5 13.5 L 0.5 3.5 C 0.5 0.5 0.5 0.5 3.5 0.5"  stroke="black" stroke-opacity="0.09999999999999999" stroke-width="3" transform="translate(1, 1)"></path><path fill="none" d="M 3.5 0.5 L 13.5 0.5 C 16.5 0.5 16.5 0.5 16.5 3.5 L 16.5 13.5 C 16.5 16.5 16.5 16.5 13.5 16.5 L 3.5 16.5 C 0.5 16.5 0.5 16.5 0.5 13.5 L 0.5 3.5 C 0.5 0.5 0.5 0.5 3.5 0.5"  stroke="black" stroke-opacity="0.15" stroke-width="1" transform="translate(1, 1)"></path><path fill="rgb(249, 249, 249)" fill-opacity=" .85" d="M 3.5 0.5 L 13.5 0.5 C 16.5 0.5 16.5 0.5 16.5 3.5 L 16.5 13.5 C 16.5 16.5 16.5 16.5 13.5 16.5 L 3.5 16.5 C 0.5 16.5 0.5 16.5 0.5 13.5 L 0.5 3.5 C 0.5 0.5 0.5 0.5 3.5 0.5"></path><text x="8"  style="font-size:12px;color:#333333;fill:#333333;" y="20"></text></g></svg>