<svg xmlns:xlink="http://www.w3.org/1999/xlink" version="1.1" style="font-family:'lucida grande', 'lucida sans unicode', arial, helvetica, sans-serif;font-size:12px;" xmlns="http://www.w3.org/2000/svg" width="600" height="400"><desc>Created with Highstock 4.2.1</desc><defs><clipPath id="highcharts-80"><rect x="0" y="0" width="516" height="205"></rect></clipPath></defs><rect x="0" y="0" width="600" height="400" strokeWidth="0" fill="#FFFFFF" class=" highcharts-background"></rect><path fill="none" d="M 74 258.5 L 590 258.5" stroke="#808050" stroke-width="1"></path><g class="highcharts-grid" ></g><g class="highcharts-grid" ><path fill="none" d="M 74 258.5 L 590 258.5" stroke="#D8D8D8" stroke-width="1"  opacity="1"></path><path fill="none" d="M 74 207.5 L 590 207.5" stroke="#D8D8D8" stroke-width="1"  opacity="1"></path><path fill="none" d="M 74 156.5 L 590 156.5" stroke="#D8D8D8" stroke-width="1"  opacity="1"></path><path fill="none" d="M 74 104.5 L 590 104.5" stroke="#D8D8D8" stroke-width="1"  opacity="1"></path><path fill="none" d="M 74 53.5 L 590 53.5" stroke="#D8D8D8" stroke-width="1"  opacity="1"></path></g><g class="highcharts-axis" ><path fill="none" d="M 81.5 258 L 81.5 268" stroke="#C0D0E0" stroke-width="1" opacity="1"></path><path fill="none" d="M 115.5 258 L 115.5 268" stroke="#C0D0E0" stroke-width="1" opacity="1"></path><path fill="none" d="M 148.5 258 L 148.5 268" stroke="#C0D0E0" stroke-width="1" opacity="1"></path><path fill="none" d="M 181.5 258 L 181.5 268" stroke="#C0D0E0" stroke-width="1" opacity="1"></path><path fill="none" d="M 214.5 258 L 214.5 268" stroke="#C0D0E0" stroke-width="1" opacity="1"></path><path fill="none" d="M 248.5 258 L 248.5 268" stroke="#C0D0E0" stroke-width="1" opacity="1"></path><path fill="none" d="M 281.5 258 L 281.5 268" stroke="#C0D0E0" stroke-width="1" opacity="1"></path><path fill="none" d="M 314.5 258 L 314.5 268" stroke="#C0D0E0" stroke-width="1" opacity="1"></path><path fill="none" d="M 348.5 258 L 348.5 268" stroke="#C0D0E0" stroke-width="1" opacity="1"></path><path fill="none" d="M 381.5 258 L 381.5 268" stroke="#C0D0E0" stroke-width="1" opacity="1"></path><path fill="none" d="M 414.5 258 L 414.5 268" stroke="#C0D0E0" stroke-width="1" opacity="1"></path><path fill="none" d="M 448.5 258 L 448.5 268" stroke="#C0D0E0" stroke-width="1" opacity="1"></path><path fill="none" d="M 481.5 258 L 481.5 268" stroke="#C0D0E0" stroke-width="1" opacity="1"></path><path fill="none" d="M 514.5 258 L 514.5 268" stroke="#C0D0E0" stroke-width="1" opacity="1"></path><path fill="none" d="M 547.5 258 L 547.5 268" stroke="#C0D0E0" stroke-width="1" opacity="1"></path><path fill="none" d="M 581.5 258 L 581.5 268" stroke="#C0D0E0" stroke-width="1" opacity="1"></path><text x="332"  text-anchor="middle" transform="translate(0,0)" class=" highcharts-xaxis-title" style="color:#707070;fill:#707070;" y="337.6019017597487">Dates</text><path fill="none" d="M 74 258.5 L 590 258.5" stroke="#C0D0E0" stroke-width="1" ></path></g><g class="highcharts-axis" ><text x="28.140625"  text-anchor="middle" transform="translate(0,0) rotate(270 28.140625 155.5)" class=" highcharts-yaxis-title" style="color:#707070;fill:#707070;" y="155.5">VA</text></g><g class="highcharts-series-group" ><g class="highcharts-series highcharts-series-0"  transform="translate(74,53) scale(1 1)" clip-path="url(#highcharts-80)"><path fill="#8085e9" d="M 8.32258064516129 205 L 24.967741935483872 205 L 41.61290322580645 205 L 58.25806451612903 205 L 74.90322580645162 205 L 91.54838709677419 205 L 108.19354838709678 56.33758850097658 L 124.83870967741936 81.8877655029297 L 141.48387096774192 205 L 158.1290322580645 205 L 174.77419354838707 205 L 191.41935483870967 205 L 208.06451612903226 205 L 224.70967741935482 205 L 241.3548387096774 205 L 258 205 L 274.64516129032256 205 L 291.2903225806451 205 L 307.93548387096774 205 L 324.5806451612903 205 L 341.22580645161287 205 L 357.8709677419355 205 L 374.51612903225805 205 L 391.1612903225806 205 L 407.80645161290323 205 L 424.4516129032258 205 L 441.09677419354836 205 L 457.7419354838709 205 L 474.38709677419354 205 L 491.0322580645161 205 L 507.67741935483866 205 L 507.67741935483866 205 L 8.32258064516129 205"  fill-opacity="0.75"></path><path fill="none" d="M 8.32258064516129 205 L 24.967741935483872 205 L 41.61290322580645 205 L 58.25806451612903 205 L 74.90322580645162 205 L 91.54838709677419 205 L 108.19354838709678 56.33758850097658 L 124.83870967741936 81.8877655029297 L 141.48387096774192 205 L 158.1290322580645 205 L 174.77419354838707 205 L 191.41935483870967 205 L 208.06451612903226 205 L 224.70967741935482 205 L 241.3548387096774 205 L 258 205 L 274.64516129032256 205 L 291.2903225806451 205 L 307.93548387096774 205 L 324.5806451612903 205 L 341.22580645161287 205 L 357.8709677419355 205 L 374.51612903225805 205 L 391.1612903225806 205 L 407.80645161290323 205 L 424.4516129032258 205 L 441.09677419354836 205 L 457.7419354838709 205 L 474.38709677419354 205 L 491.0322580645161 205 L 507.67741935483866 205" stroke="#8085e9" stroke-width="2"  stroke-linejoin="round" stroke-linecap="round"></path></g><g class="highcharts-markers highcharts-series-0"  transform="translate(74,53) scale(1 1)" clip-path="none"><path fill="#8085e9" d="M 507 201 C 512.328 201 512.328 209 507 209 C 501.672 209 501.672 201 507 201 Z"></path><path fill="#8085e9" d="M 491 201 C 496.328 201 496.328 209 491 209 C 485.672 209 485.672 201 491 201 Z"></path><path fill="#8085e9" d="M 474 201 C 479.328 201 479.328 209 474 209 C 468.672 209 468.672 201 474 201 Z"></path><path fill="#8085e9" d="M 457 201 C 462.328 201 462.328 209 457 209 C 451.672 209 451.672 201 457 201 Z"></path><path fill="#8085e9" d="M 441 201 C 446.328 201 446.328 209 441 209 C 435.672 209 435.672 201 441 201 Z"></path><path fill="#8085e9" d="M 424 201 C 429.328 201 429.328 209 424 209 C 418.672 209 418.672 201 424 201 Z"></path><path fill="#8085e9" d="M 407 201 C 412.328 201 412.328 209 407 209 C 401.672 209 401.672 201 407 201 Z"></path><path fill="#8085e9" d="M 391 201 C 396.328 201 396.328 209 391 209 C 385.672 209 385.672 201 391 201 Z"></path><path fill="#8085e9" d="M 374 201 C 379.328 201 379.328 209 374 209 C 368.672 209 368.672 201 374 201 Z"></path><path fill="#8085e9" d="M 357 201 C 362.328 201 362.328 209 357 209 C 351.672 209 351.672 201 357 201 Z"></path><path fill="#8085e9" d="M 341 201 C 346.328 201 346.328 209 341 209 C 335.672 209 335.672 201 341 201 Z"></path><path fill="#8085e9" d="M 324 201 C 329.328 201 329.328 209 324 209 C 318.672 209 318.672 201 324 201 Z"></path><path fill="#8085e9" d="M 307 201 C 312.328 201 312.328 209 307 209 C 301.672 209 301.672 201 307 201 Z"></path><path fill="#8085e9" d="M 291 201 C 296.328 201 296.328 209 291 209 C 285.672 209 285.672 201 291 201 Z"></path><path fill="#8085e9" d="M 274 201 C 279.328 201 279.328 209 274 209 C 268.672 209 268.672 201 274 201 Z"></path><path fill="#8085e9" d="M 258 201 C 263.328 201 263.328 209 258 209 C 252.672 209 252.672 201 258 201 Z"></path><path fill="#8085e9" d="M 241 201 C 246.328 201 246.328 209 241 209 C 235.672 209 235.672 201 241 201 Z"></path><path fill="#8085e9" d="M 224 201 C 229.328 201 229.328 209 224 209 C 218.672 209 218.672 201 224 201 Z"></path><path fill="#8085e9" d="M 208 201 C 213.328 201 213.328 209 208 209 C 202.672 209 202.672 201 208 201 Z"></path><path fill="#8085e9" d="M 191 201 C 196.328 201 196.328 209 191 209 C 185.672 209 185.672 201 191 201 Z"></path><path fill="#8085e9" d="M 174 201 C 179.328 201 179.328 209 174 209 C 168.672 209 168.672 201 174 201 Z"></path><path fill="#8085e9" d="M 158 201 C 163.328 201 163.328 209 158 209 C 152.672 209 152.672 201 158 201 Z"></path><path fill="#8085e9" d="M 141 201 C 146.328 201 146.328 209 141 209 C 135.672 209 135.672 201 141 201 Z"></path><path fill="#8085e9" d="M 124 77.8877655029297 C 129.328 77.8877655029297 129.328 85.8877655029297 124 85.8877655029297 C 118.672 85.8877655029297 118.672 77.8877655029297 124 77.8877655029297 Z"></path><path fill="#8085e9" d="M 108 52.33758850097658 C 113.328 52.33758850097658 113.328 60.33758850097658 108 60.33758850097658 C 102.672 60.33758850097658 102.672 52.33758850097658 108 52.33758850097658 Z"></path><path fill="#8085e9" d="M 91 201 C 96.328 201 96.328 209 91 209 C 85.672 209 85.672 201 91 201 Z"></path><path fill="#8085e9" d="M 74 201 C 79.328 201 79.328 209 74 209 C 68.672 209 68.672 201 74 201 Z"></path><path fill="#8085e9" d="M 58 201 C 63.328 201 63.328 209 58 209 C 52.672 209 52.672 201 58 201 Z"></path><path fill="#8085e9" d="M 41 201 C 46.328 201 46.328 209 41 209 C 35.672 209 35.672 201 41 201 Z"></path><path fill="#8085e9" d="M 24 201 C 29.328 201 29.328 209 24 209 C 18.672 209 18.672 201 24 201 Z"></path><path fill="#8085e9" d="M 8 201 C 13.328 201 13.328 209 8 209 C 2.6719999999999997 209 2.6719999999999997 201 8 201 Z"></path></g></g><text x="280" text-anchor="middle" class="highcharts-title"  style="color:#333333;font-size:18px;fill:#333333;width:536px;" y="24"><tspan>Puissance reactive entre 1/8/2010 et 31/8/2010</tspan></text><g class="highcharts-legend"  transform="translate(227,356)"><g ><g><g class="highcharts-legend-item"  transform="translate(8,3)"><text x="21" style="color:#333333;font-size:12px;font-weight:bold;cursor:pointer;fill:#333333;" text-anchor="start"  y="15"><tspan>Puissance reactive </tspan></text><rect x="0" y="4" width="16" height="12"  fill="#8085e9"></rect></g></g></g></g><g class="highcharts-axis-labels highcharts-xaxis-labels" ><text x="84.91530550951197" style="color:#606060;cursor:default;font-size:11px;fill:#606060;width:400px;text-overflow:ellipsis;" text-anchor="end" transform="translate(0,0) rotate(-45 84.91530550951197 274)" y="274" opacity="1"><tspan>2010/8/1</tspan></text><text x="118.20562809015712" style="color:#606060;cursor:default;font-size:11px;fill:#606060;width:400px;text-overflow:ellipsis;" text-anchor="end" transform="translate(0,0) rotate(-45 118.20562809015712 274)" y="274" opacity="1"><tspan>2010/8/3</tspan></text><text x="151.4959506708023" style="color:#606060;cursor:default;font-size:11px;fill:#606060;width:400px;text-overflow:ellipsis;" text-anchor="end" transform="translate(0,0) rotate(-45 151.4959506708023 274)" y="274" opacity="1"><tspan>2010/8/5</tspan></text><text x="184.78627325144745" style="color:#606060;cursor:default;font-size:11px;fill:#606060;width:400px;text-overflow:ellipsis;" text-anchor="end" transform="translate(0,0) rotate(-45 184.78627325144745 274)" y="274" opacity="1"><tspan>2010/8/7</tspan></text><text x="218.0765958320926" style="color:#606060;cursor:default;font-size:11px;fill:#606060;width:400px;text-overflow:ellipsis;" text-anchor="end" transform="translate(0,0) rotate(-45 218.0765958320926 274)" y="274" opacity="1"><tspan>2010/8/9</tspan></text><text x="251.36691841273776" style="color:#606060;cursor:default;font-size:11px;fill:#606060;width:400px;text-overflow:ellipsis;" text-anchor="end" transform="translate(0,0) rotate(-45 251.36691841273776 274)" y="274" opacity="1"><tspan>2010/8/11</tspan></text><text x="284.6572409933829" style="color:#606060;cursor:default;font-size:11px;fill:#606060;width:400px;text-overflow:ellipsis;" text-anchor="end" transform="translate(0,0) rotate(-45 284.6572409933829 274)" y="274" opacity="1"><tspan>2010/8/13</tspan></text><text x="317.9475635740281" style="color:#606060;cursor:default;font-size:11px;fill:#606060;width:400px;text-overflow:ellipsis;" text-anchor="end" transform="translate(0,0) rotate(-45 317.9475635740281 274)" y="274" opacity="1"><tspan>2010/8/15</tspan></text><text x="351.2378861546732" style="color:#606060;cursor:default;font-size:11px;fill:#606060;width:400px;text-overflow:ellipsis;" text-anchor="end" transform="translate(0,0) rotate(-45 351.2378861546732 274)" y="274" opacity="1"><tspan>2010/8/17</tspan></text><text x="384.5282087353184" style="color:#606060;cursor:default;font-size:11px;fill:#606060;width:400px;text-overflow:ellipsis;" text-anchor="end" transform="translate(0,0) rotate(-45 384.5282087353184 274)" y="274" opacity="1"><tspan>2010/8/19</tspan></text><text x="417.8185313159635" style="color:#606060;cursor:default;font-size:11px;fill:#606060;width:400px;text-overflow:ellipsis;" text-anchor="end" transform="translate(0,0) rotate(-45 417.8185313159635 274)" y="274" opacity="1"><tspan>2010/8/21</tspan></text><text x="451.1088538966087" style="color:#606060;cursor:default;font-size:11px;fill:#606060;width:400px;text-overflow:ellipsis;" text-anchor="end" transform="translate(0,0) rotate(-45 451.1088538966087 274)" y="274" opacity="1"><tspan>2010/8/23</tspan></text><text x="484.3991764772539" style="color:#606060;cursor:default;font-size:11px;fill:#606060;width:400px;text-overflow:ellipsis;" text-anchor="end" transform="translate(0,0) rotate(-45 484.3991764772539 274)" y="274" opacity="1"><tspan>2010/8/25</tspan></text><text x="517.689499057899" style="color:#606060;cursor:default;font-size:11px;fill:#606060;width:400px;text-overflow:ellipsis;" text-anchor="end" transform="translate(0,0) rotate(-45 517.689499057899 274)" y="274" opacity="1"><tspan>2010/8/27</tspan></text><text x="550.9798216385442" style="color:#606060;cursor:default;font-size:11px;fill:#606060;width:400px;text-overflow:ellipsis;" text-anchor="end" transform="translate(0,0) rotate(-45 550.9798216385442 274)" y="274" opacity="1"><tspan>2010/8/29</tspan></text><text x="584.2701442191893" style="color:#606060;cursor:default;font-size:11px;fill:#606060;width:400px;text-overflow:ellipsis;" text-anchor="end" transform="translate(0,0) rotate(-45 584.2701442191893 274)" y="274" opacity="1"><tspan>2010/8/31</tspan></text></g><g class="highcharts-axis-labels highcharts-yaxis-labels" ><text x="59" style="color:#606060;cursor:default;font-size:11px;fill:#606060;width:188px;text-overflow:clip;" text-anchor="end" transform="translate(0,0)" y="261" opacity="1">0</text><text x="59" style="color:#606060;cursor:default;font-size:11px;fill:#606060;width:188px;text-overflow:clip;" text-anchor="end" transform="translate(0,0)" y="209" opacity="1">100</text><text x="59" style="color:#606060;cursor:default;font-size:11px;fill:#606060;width:188px;text-overflow:clip;" text-anchor="end" transform="translate(0,0)" y="158" opacity="1">200</text><text x="59" style="color:#606060;cursor:default;font-size:11px;fill:#606060;width:188px;text-overflow:clip;" text-anchor="end" transform="translate(0,0)" y="107" opacity="1">300</text><text x="59" style="color:#606060;cursor:default;font-size:11px;fill:#606060;width:188px;text-overflow:clip;" text-anchor="end" transform="translate(0,0)" y="56" opacity="1">400</text></g><g class="highcharts-tooltip"  style="cursor:default;padding:0;pointer-events:none;white-space:nowrap;" transform="translate(0,-9999)"><path fill="none" d="M 3.5 0.5 L 13.5 0.5 C 16.5 0.5 16.5 0.5 16.5 3.5 L 16.5 13.5 C 16.5 16.5 16.5 16.5 13.5 16.5 L 3.5 16.5 C 0.5 16.5 0.5 16.5 0.5 13.5 L 0.5 3.5 C 0.5 0.5 0.5 0.5 3.5 0.5"  stroke="black" stroke-opacity="0.049999999999999996" stroke-width="5" transform="translate(1, 1)"></path><path fill="none" d="M 3.5 0.5 L 13.5 0.5 C 16.5 0.5 16.5 0.5 16.5 3.5 L 16.5 13.5 C 16.5 16.5 16.5 16.5 13.5 16.5 L 3.5 16.5 C 0.5 16.5 0.5 16.5 0.5 13.5 L 0.5 3.5 C 0.5 0.5 0.5 0.5 3.5 0.5"  stroke="black" stroke-opacity="0.09999999999999999" stroke-width="3" transform="translate(1, 1)"></path><path fill="none" d="M 3.5 0.5 L 13.5 0.5 C 16.5 0.5 16.5 0.5 16.5 3.5 L 16.5 13.5 C 16.5 16.5 16.5 16.5 13.5 16.5 L 3.5 16.5 C 0.5 16.5 0.5 16.5 0.5 13.5 L 0.5 3.5 C 0.5 0.5 0.5 0.5 3.5 0.5"  stroke="black" stroke-opacity="0.15" stroke-width="1" transform="translate(1, 1)"></path><path fill="rgb(249, 249, 249)" fill-opacity=" .85" d="M 3.5 0.5 L 13.5 0.5 C 16.5 0.5 16.5 0.5 16.5 3.5 L 16.5 13.5 C 16.5 16.5 16.5 16.5 13.5 16.5 L 3.5 16.5 C 0.5 16.5 0.5 16.5 0.5 13.5 L 0.5 3.5 C 0.5 0.5 0.5 0.5 3.5 0.5"></path><text x="8"  style="font-size:12px;color:#333333;fill:#333333;" y="20"></text></g></svg>