<svg xmlns:xlink="http://www.w3.org/1999/xlink" version="1.1" style="font-family:'lucida grande', 'lucida sans unicode', arial, helvetica, sans-serif;font-size:12px;" xmlns="http://www.w3.org/2000/svg" width="600" height="400"><desc>Created with Highstock 4.2.1</desc><defs><clipPath id="highcharts-10"><rect x="0" y="0" width="530" height="243"></rect></clipPath></defs><rect x="0" y="0" width="600" height="400" strokeWidth="0" fill="#FFFFFF" class=" highcharts-background"></rect><path fill="none" d="M 60 175.5 L 590 175.5" stroke="#808050" stroke-width="1"></path><g class="highcharts-grid" ></g><g class="highcharts-grid" ><path fill="none" d="M 60 175.5 L 590 175.5" stroke="#D8D8D8" stroke-width="1"  opacity="1"></path></g><g class="highcharts-axis" ><path fill="none" d="M 324.5 296 L 324.5 306" stroke="#C0D0E0" stroke-width="1" opacity="1"></path><path fill="none" d="M 590.5 296 L 590.5 306" stroke="#C0D0E0" stroke-width="1" opacity="1"></path><path fill="none" d="M 59.5 296 L 59.5 306" stroke="#C0D0E0" stroke-width="1" opacity="1"></path><text x="325"  text-anchor="middle" transform="translate(0,0)" class=" highcharts-xaxis-title" style="color:#707070;fill:#707070;" y="338">Dates</text><path fill="none" d="M 60 296.5 L 590 296.5" stroke="#C0D0E0" stroke-width="1" ></path></g><g class="highcharts-axis" ><text x="28.046875"  text-anchor="middle" transform="translate(0,0) rotate(270 28.046875 174.5)" class=" highcharts-yaxis-title" style="color:#707070;fill:#707070;" y="174.5">KWH</text></g><g class="highcharts-series-group" ><g class="highcharts-series highcharts-series-0"  transform="translate(60,53) scale(1 1)" clip-path="url(#highcharts-10)"><rect x="68.5" y="122.5" width="128" height="0" stroke="#FFFFFF" stroke-width="1" fill="#91e8e1" rx="0" ry="0"></rect><rect x="333.5" y="122.5" width="128" height="0" stroke="#FFFFFF" stroke-width="1" fill="#91e8e1" rx="0" ry="0"></rect></g><g class="highcharts-markers highcharts-series-0"  transform="translate(60,53) scale(1 1)" clip-path="none"></g></g><text x="280" text-anchor="middle" class="highcharts-title"  style="color:#333333;font-size:18px;fill:#333333;width:536px;" y="24"><tspan>Energie consommée entre 10/3/2016 et 11/3/2016</tspan></text><g class="highcharts-legend"  transform="translate(240,356)"><g ><g><g class="highcharts-legend-item"  transform="translate(8,3)"><text x="21" style="color:#333333;font-size:12px;font-weight:bold;cursor:pointer;fill:#333333;" text-anchor="start"  y="15"><tspan>Energie active </tspan></text><rect x="0" y="4" width="16" height="12"  fill="#91e8e1"></rect></g></g></g></g><g class="highcharts-axis-labels highcharts-xaxis-labels" ><text x="192.5" style="color:#606060;cursor:default;font-size:11px;fill:#606060;width:255px;text-overflow:clip;" text-anchor="middle" transform="translate(0,0)" y="315" opacity="1">2016/3/10</text><text x="457.5" style="color:#606060;cursor:default;font-size:11px;fill:#606060;width:255px;text-overflow:clip;" text-anchor="middle" transform="translate(0,0)" y="315" opacity="1">2016/3/11</text></g><g class="highcharts-axis-labels highcharts-yaxis-labels" ><text x="45" style="color:#606060;cursor:default;font-size:11px;fill:#606060;width:188px;text-overflow:clip;" text-anchor="end" transform="translate(0,0)" y="177" opacity="1">0</text></g><g class="highcharts-tooltip"  style="cursor:default;padding:0;pointer-events:none;white-space:nowrap;" transform="translate(0,-9999)"><path fill="none" d="M 3.5 0.5 L 13.5 0.5 C 16.5 0.5 16.5 0.5 16.5 3.5 L 16.5 13.5 C 16.5 16.5 16.5 16.5 13.5 16.5 L 3.5 16.5 C 0.5 16.5 0.5 16.5 0.5 13.5 L 0.5 3.5 C 0.5 0.5 0.5 0.5 3.5 0.5"  stroke="black" stroke-opacity="0.049999999999999996" stroke-width="5" transform="translate(1, 1)"></path><path fill="none" d="M 3.5 0.5 L 13.5 0.5 C 16.5 0.5 16.5 0.5 16.5 3.5 L 16.5 13.5 C 16.5 16.5 16.5 16.5 13.5 16.5 L 3.5 16.5 C 0.5 16.5 0.5 16.5 0.5 13.5 L 0.5 3.5 C 0.5 0.5 0.5 0.5 3.5 0.5"  stroke="black" stroke-opacity="0.09999999999999999" stroke-width="3" transform="translate(1, 1)"></path><path fill="none" d="M 3.5 0.5 L 13.5 0.5 C 16.5 0.5 16.5 0.5 16.5 3.5 L 16.5 13.5 C 16.5 16.5 16.5 16.5 13.5 16.5 L 3.5 16.5 C 0.5 16.5 0.5 16.5 0.5 13.5 L 0.5 3.5 C 0.5 0.5 0.5 0.5 3.5 0.5"  stroke="black" stroke-opacity="0.15" stroke-width="1" transform="translate(1, 1)"></path><path fill="rgb(249, 249, 249)" fill-opacity=" .85" d="M 3.5 0.5 L 13.5 0.5 C 16.5 0.5 16.5 0.5 16.5 3.5 L 16.5 13.5 C 16.5 16.5 16.5 16.5 13.5 16.5 L 3.5 16.5 C 0.5 16.5 0.5 16.5 0.5 13.5 L 0.5 3.5 C 0.5 0.5 0.5 0.5 3.5 0.5"></path><text x="8"  style="font-size:12px;color:#333333;fill:#333333;" y="20"></text></g></svg>