<svg xmlns:xlink="http://www.w3.org/1999/xlink" version="1.1" style="font-family:'lucida grande', 'lucida sans unicode', arial, helvetica, sans-serif;font-size:12px;" xmlns="http://www.w3.org/2000/svg" width="600" height="400"><desc>Created with Highstock 4.2.1</desc><defs><clipPath id="highcharts-60"><rect x="0" y="0" width="516" height="205"></rect></clipPath></defs><rect x="0" y="0" width="600" height="400" strokeWidth="0" fill="#FFFFFF" class=" highcharts-background"></rect><g class="highcharts-grid" ></g><g class="highcharts-grid" ><path fill="none" d="M 74 156.5 L 590 156.5" stroke="#D8D8D8" stroke-width="1"  opacity="1"></path></g><g class="highcharts-axis" ><path fill="none" d="M 103.5 258 L 103.5 268" stroke="#C0D0E0" stroke-width="1" opacity="1"></path><path fill="none" d="M 134.5 258 L 134.5 268" stroke="#C0D0E0" stroke-width="1" opacity="1"></path><path fill="none" d="M 164.5 258 L 164.5 268" stroke="#C0D0E0" stroke-width="1" opacity="1"></path><path fill="none" d="M 194.5 258 L 194.5 268" stroke="#C0D0E0" stroke-width="1" opacity="1"></path><path fill="none" d="M 225.5 258 L 225.5 268" stroke="#C0D0E0" stroke-width="1" opacity="1"></path><path fill="none" d="M 255.5 258 L 255.5 268" stroke="#C0D0E0" stroke-width="1" opacity="1"></path><path fill="none" d="M 285.5 258 L 285.5 268" stroke="#C0D0E0" stroke-width="1" opacity="1"></path><path fill="none" d="M 316.5 258 L 316.5 268" stroke="#C0D0E0" stroke-width="1" opacity="1"></path><path fill="none" d="M 346.5 258 L 346.5 268" stroke="#C0D0E0" stroke-width="1" opacity="1"></path><path fill="none" d="M 377.5 258 L 377.5 268" stroke="#C0D0E0" stroke-width="1" opacity="1"></path><path fill="none" d="M 407.5 258 L 407.5 268" stroke="#C0D0E0" stroke-width="1" opacity="1"></path><path fill="none" d="M 437.5 258 L 437.5 268" stroke="#C0D0E0" stroke-width="1" opacity="1"></path><path fill="none" d="M 468.5 258 L 468.5 268" stroke="#C0D0E0" stroke-width="1" opacity="1"></path><path fill="none" d="M 498.5 258 L 498.5 268" stroke="#C0D0E0" stroke-width="1" opacity="1"></path><path fill="none" d="M 528.5 258 L 528.5 268" stroke="#C0D0E0" stroke-width="1" opacity="1"></path><path fill="none" d="M 559.5 258 L 559.5 268" stroke="#C0D0E0" stroke-width="1" opacity="1"></path><path fill="none" d="M 590.5 258 L 590.5 268" stroke="#C0D0E0" stroke-width="1" opacity="1"></path><path fill="none" d="M 73.5 258 L 73.5 268" stroke="#C0D0E0" stroke-width="1" opacity="1"></path><text x="332"  text-anchor="middle" transform="translate(0,0)" class=" highcharts-xaxis-title" style="color:#707070;fill:#707070;" y="337.6019017597487">Dates</text><path fill="none" d="M 74 258.5 L 590 258.5" stroke="#C0D0E0" stroke-width="1" ></path></g><g class="highcharts-axis" ><text x="28.140625"  text-anchor="middle" transform="translate(0,0) rotate(270 28.140625 155.5)" class=" highcharts-yaxis-title" style="color:#707070;fill:#707070;" y="155.5">Volt</text></g><g class="highcharts-series-group" ><g class="highcharts-series highcharts-series-0"  transform="translate(74,53) scale(1 1)" clip-path="url(#highcharts-60)"><path fill="none" d="M 15.176470588235293 102.5 L 45.529411764705884 102.5 L 75.88235294117646 102.5 L 106.23529411764706 102.5 L 136.58823529411765 102.5 L 166.94117647058823 102.5 L 197.29411764705884 102.5 L 227.64705882352942 102.5 L 258 102.5 L 288.3529411764706 102.5 L 318.70588235294116 102.5 L 349.05882352941177 102.5 L 379.4117647058824 102.5 L 409.7647058823529 102.5 L 440.11764705882354 102.5 L 470.4705882352941 102.5 L 500.8235294117647 102.5" stroke="#7cb5ec" stroke-width="2"  stroke-linejoin="round" stroke-linecap="round"></path></g><g class="highcharts-markers highcharts-series-0"  transform="translate(74,53) scale(1 1)" clip-path="none"><path fill="#7cb5ec" d="M 500 98.5 C 505.328 98.5 505.328 106.5 500 106.5 C 494.672 106.5 494.672 98.5 500 98.5 Z"></path><path fill="#7cb5ec" d="M 470 98.5 C 475.328 98.5 475.328 106.5 470 106.5 C 464.672 106.5 464.672 98.5 470 98.5 Z"></path><path fill="#7cb5ec" d="M 440 98.5 C 445.328 98.5 445.328 106.5 440 106.5 C 434.672 106.5 434.672 98.5 440 98.5 Z"></path><path fill="#7cb5ec" d="M 409 98.5 C 414.328 98.5 414.328 106.5 409 106.5 C 403.672 106.5 403.672 98.5 409 98.5 Z"></path><path fill="#7cb5ec" d="M 379 98.5 C 384.328 98.5 384.328 106.5 379 106.5 C 373.672 106.5 373.672 98.5 379 98.5 Z"></path><path fill="#7cb5ec" d="M 349 98.5 C 354.328 98.5 354.328 106.5 349 106.5 C 343.672 106.5 343.672 98.5 349 98.5 Z"></path><path fill="#7cb5ec" d="M 318 98.5 C 323.328 98.5 323.328 106.5 318 106.5 C 312.672 106.5 312.672 98.5 318 98.5 Z"></path><path fill="#7cb5ec" d="M 288 98.5 C 293.328 98.5 293.328 106.5 288 106.5 C 282.672 106.5 282.672 98.5 288 98.5 Z"></path><path fill="#7cb5ec" d="M 258 98.5 C 263.328 98.5 263.328 106.5 258 106.5 C 252.672 106.5 252.672 98.5 258 98.5 Z"></path><path fill="#7cb5ec" d="M 227 98.5 C 232.328 98.5 232.328 106.5 227 106.5 C 221.672 106.5 221.672 98.5 227 98.5 Z"></path><path fill="#7cb5ec" d="M 197 98.5 C 202.328 98.5 202.328 106.5 197 106.5 C 191.672 106.5 191.672 98.5 197 98.5 Z"></path><path fill="#7cb5ec" d="M 166 98.5 C 171.328 98.5 171.328 106.5 166 106.5 C 160.672 106.5 160.672 98.5 166 98.5 Z"></path><path fill="#7cb5ec" d="M 136 98.5 C 141.328 98.5 141.328 106.5 136 106.5 C 130.672 106.5 130.672 98.5 136 98.5 Z"></path><path fill="#7cb5ec" d="M 106 98.5 C 111.328 98.5 111.328 106.5 106 106.5 C 100.672 106.5 100.672 98.5 106 98.5 Z"></path><path fill="#7cb5ec" d="M 75 98.5 C 80.328 98.5 80.328 106.5 75 106.5 C 69.672 106.5 69.672 98.5 75 98.5 Z"></path><path fill="#7cb5ec" d="M 45 98.5 C 50.328 98.5 50.328 106.5 45 106.5 C 39.672 106.5 39.672 98.5 45 98.5 Z"></path><path fill="#7cb5ec" d="M 15 98.5 C 20.328 98.5 20.328 106.5 15 106.5 C 9.672 106.5 9.672 98.5 15 98.5 Z"></path></g></g><text x="280" text-anchor="middle" class="highcharts-title"  style="color:#333333;font-size:18px;fill:#333333;width:536px;" y="24"><tspan>Tension soutirée entre 2/6/2009 et 18/6/2009</tspan></text><g class="highcharts-legend"  transform="translate(258,356)"><g ><g><g class="highcharts-legend-item"  transform="translate(8,3)"><path fill="none" d="M 0 11 L 16 11" stroke="#7cb5ec" stroke-width="2"></path><path fill="#7cb5ec" d="M 8 7 C 13.328 7 13.328 15 8 15 C 2.6719999999999997 15 2.6719999999999997 7 8 7 Z"></path><text x="21" style="color:#333333;font-size:12px;font-weight:bold;cursor:pointer;fill:#333333;" text-anchor="start"  y="15"><tspan>Tension </tspan></text></g></g></g></g><g class="highcharts-axis-labels highcharts-xaxis-labels" ><text x="91.76919545258596" style="color:#606060;cursor:default;font-size:11px;fill:#606060;width:400px;text-overflow:ellipsis;" text-anchor="end" transform="translate(0,0) rotate(-45 91.76919545258596 274)" y="274" opacity="1"><tspan>2009/6/2</tspan></text><text x="122.12213662905656" style="color:#606060;cursor:default;font-size:11px;fill:#606060;width:400px;text-overflow:ellipsis;" text-anchor="end" transform="translate(0,0) rotate(-45 122.12213662905656 274)" y="274" opacity="1"><tspan>2009/6/3</tspan></text><text x="152.47507780552715" style="color:#606060;cursor:default;font-size:11px;fill:#606060;width:400px;text-overflow:ellipsis;" text-anchor="end" transform="translate(0,0) rotate(-45 152.47507780552715 274)" y="274" opacity="1"><tspan>2009/6/4</tspan></text><text x="182.82801898199773" style="color:#606060;cursor:default;font-size:11px;fill:#606060;width:400px;text-overflow:ellipsis;" text-anchor="end" transform="translate(0,0) rotate(-45 182.82801898199773 274)" y="274" opacity="1"><tspan>2009/6/5</tspan></text><text x="213.18096015846834" style="color:#606060;cursor:default;font-size:11px;fill:#606060;width:400px;text-overflow:ellipsis;" text-anchor="end" transform="translate(0,0) rotate(-45 213.18096015846834 274)" y="274" opacity="1"><tspan>2009/6/6</tspan></text><text x="243.5339013349389" style="color:#606060;cursor:default;font-size:11px;fill:#606060;width:400px;text-overflow:ellipsis;" text-anchor="end" transform="translate(0,0) rotate(-45 243.5339013349389 274)" y="274" opacity="1"><tspan>2009/6/7</tspan></text><text x="273.8868425114095" style="color:#606060;cursor:default;font-size:11px;fill:#606060;width:400px;text-overflow:ellipsis;" text-anchor="end" transform="translate(0,0) rotate(-45 273.8868425114095 274)" y="274" opacity="1"><tspan>2009/6/8</tspan></text><text x="304.23978368788005" style="color:#606060;cursor:default;font-size:11px;fill:#606060;width:400px;text-overflow:ellipsis;" text-anchor="end" transform="translate(0,0) rotate(-45 304.23978368788005 274)" y="274" opacity="1"><tspan>2009/6/9</tspan></text><text x="334.59272486435066" style="color:#606060;cursor:default;font-size:11px;fill:#606060;width:400px;text-overflow:ellipsis;" text-anchor="end" transform="translate(0,0) rotate(-45 334.59272486435066 274)" y="274" opacity="1"><tspan>2009/6/10</tspan></text><text x="364.9456660408212" style="color:#606060;cursor:default;font-size:11px;fill:#606060;width:400px;text-overflow:ellipsis;" text-anchor="end" transform="translate(0,0) rotate(-45 364.9456660408212 274)" y="274" opacity="1"><tspan>2009/6/11</tspan></text><text x="395.2986072172918" style="color:#606060;cursor:default;font-size:11px;fill:#606060;width:400px;text-overflow:ellipsis;" text-anchor="end" transform="translate(0,0) rotate(-45 395.2986072172918 274)" y="274" opacity="1"><tspan>2009/6/12</tspan></text><text x="425.6515483937624" style="color:#606060;cursor:default;font-size:11px;fill:#606060;width:400px;text-overflow:ellipsis;" text-anchor="end" transform="translate(0,0) rotate(-45 425.6515483937624 274)" y="274" opacity="1"><tspan>2009/6/13</tspan></text><text x="456.004489570233" style="color:#606060;cursor:default;font-size:11px;fill:#606060;width:400px;text-overflow:ellipsis;" text-anchor="end" transform="translate(0,0) rotate(-45 456.004489570233 274)" y="274" opacity="1"><tspan>2009/6/14</tspan></text><text x="486.3574307467036" style="color:#606060;cursor:default;font-size:11px;fill:#606060;width:400px;text-overflow:ellipsis;" text-anchor="end" transform="translate(0,0) rotate(-45 486.3574307467036 274)" y="274" opacity="1"><tspan>2009/6/15</tspan></text><text x="516.7103719231742" style="color:#606060;cursor:default;font-size:11px;fill:#606060;width:400px;text-overflow:ellipsis;" text-anchor="end" transform="translate(0,0) rotate(-45 516.7103719231742 274)" y="274" opacity="1"><tspan>2009/6/16</tspan></text><text x="547.0633130996448" style="color:#606060;cursor:default;font-size:11px;fill:#606060;width:400px;text-overflow:ellipsis;" text-anchor="end" transform="translate(0,0) rotate(-45 547.0633130996448 274)" y="274" opacity="1"><tspan>2009/6/17</tspan></text><text x="577.4162542761154" style="color:#606060;cursor:default;font-size:11px;fill:#606060;width:400px;text-overflow:ellipsis;" text-anchor="end" transform="translate(0,0) rotate(-45 577.4162542761154 274)" y="274" opacity="1"><tspan>2009/6/18</tspan></text></g><g class="highcharts-axis-labels highcharts-yaxis-labels" ><text x="59" style="color:#606060;cursor:default;font-size:11px;fill:#606060;width:188px;text-overflow:clip;" text-anchor="end" transform="translate(0,0)" y="158" opacity="1">244</text></g><g class="highcharts-tooltip"  style="cursor:default;padding:0;pointer-events:none;white-space:nowrap;" transform="translate(0,-9999)"><path fill="none" d="M 3.5 0.5 L 13.5 0.5 C 16.5 0.5 16.5 0.5 16.5 3.5 L 16.5 13.5 C 16.5 16.5 16.5 16.5 13.5 16.5 L 3.5 16.5 C 0.5 16.5 0.5 16.5 0.5 13.5 L 0.5 3.5 C 0.5 0.5 0.5 0.5 3.5 0.5"  stroke="black" stroke-opacity="0.049999999999999996" stroke-width="5" transform="translate(1, 1)"></path><path fill="none" d="M 3.5 0.5 L 13.5 0.5 C 16.5 0.5 16.5 0.5 16.5 3.5 L 16.5 13.5 C 16.5 16.5 16.5 16.5 13.5 16.5 L 3.5 16.5 C 0.5 16.5 0.5 16.5 0.5 13.5 L 0.5 3.5 C 0.5 0.5 0.5 0.5 3.5 0.5"  stroke="black" stroke-opacity="0.09999999999999999" stroke-width="3" transform="translate(1, 1)"></path><path fill="none" d="M 3.5 0.5 L 13.5 0.5 C 16.5 0.5 16.5 0.5 16.5 3.5 L 16.5 13.5 C 16.5 16.5 16.5 16.5 13.5 16.5 L 3.5 16.5 C 0.5 16.5 0.5 16.5 0.5 13.5 L 0.5 3.5 C 0.5 0.5 0.5 0.5 3.5 0.5"  stroke="black" stroke-opacity="0.15" stroke-width="1" transform="translate(1, 1)"></path><path fill="rgb(249, 249, 249)" fill-opacity=" .85" d="M 3.5 0.5 L 13.5 0.5 C 16.5 0.5 16.5 0.5 16.5 3.5 L 16.5 13.5 C 16.5 16.5 16.5 16.5 13.5 16.5 L 3.5 16.5 C 0.5 16.5 0.5 16.5 0.5 13.5 L 0.5 3.5 C 0.5 0.5 0.5 0.5 3.5 0.5"></path><text x="8"  style="font-size:12px;color:#333333;fill:#333333;" y="20"></text></g></svg>